<?xml version="1.0" encoding="UTF-8"?>
<svg id="svg5" xmlns="http://www.w3.org/2000/svg" version="1.1" xmlns:svg="http://www.w3.org/2000/svg" xmlns:xlink="http://www.w3.org/1999/xlink" viewBox="0 0 391.66 224.5">
  <!-- Generator: Adobe Illustrator 30.6.0, SVG Export Plug-In . SVG Version: 2.1.4 Build 109)  -->
  <defs>
    <clipPath id="clippath">
      <rect width="391.65" height="224.5" fill="none"/>
    </clipPath>
  </defs>
  <g clip-path="url(#clippath)">
    <g>
      <path d="M194.84,222.07h47.66v-86.4h-47.66v86.4ZM89.44,135.67l17.75,88.83h48.6l-17.75-88.83h-48.6ZM126.53,78.07L110.93,0H44.86L0,224.5h48.6l29.29-146.59.07.34v-.18h48.57ZM242.5,47.71h85.87V.05h-192.29v47.66h58.75v30.37h47.66v-30.37h.01ZM391.65,144.09V.05h-47.71v138.84c0,4.08-.15,8.52-.46,13.3-.31,4.79-1.18,9.23-2.6,13.3-1.43,4.08-3.67,7.49-6.73,10.25-3.06,2.75-7.34,4.13-12.84,4.13s-10.04-1.83-14.22-5.5-6.57-8.15-7.19-13.46l-43.73,10.7c3.46,17.33,11.11,30.08,22.94,38.23,11.82,8.15,26.3,12.23,43.43,12.23,14.68,0,26.55-2.19,35.63-6.58,9.07-4.38,16.06-10.19,20.95-17.43,4.89-7.23,8.2-15.54,9.94-24.92,1.73-9.38,2.6-19.06,2.6-29.05" fill="#231f20"/>
      <path d="M323.59,114.07c.92-.65,1.38-1.56,1.38-2.73,0-.88-.3-1.61-.89-2.18-.6-.57-1.53-1.02-2.82-1.35-.83-.22-1.48-.45-1.94-.69-.46-.24-.69-.64-.69-1.18,0-.41.16-.73.47-.96.31-.23.75-.34,1.3-.34.7,0,1.36.27,1.97.81.61.54,1.04,1.19,1.29,1.93h.75l-.17-3.67h-.82l-.23.64c-.37-.16-.83-.3-1.38-.44-.55-.13-1.15-.2-1.8-.2-1.38,0-2.49.31-3.34.94-.85.62-1.28,1.44-1.28,2.45,0,.55.1,1.02.29,1.41.19.39.45.73.78,1.01.37.32.73.55,1.08.69.35.15.77.29,1.25.44.49.14.9.27,1.23.37.33.1.64.22.92.37.25.14.45.3.59.48.14.19.22.42.22.71,0,.53-.16.92-.48,1.18-.32.25-.81.38-1.46.38-.49,0-.96-.11-1.39-.33-.43-.22-.82-.49-1.16-.82-.32-.32-.61-.69-.86-1.09-.25-.41-.43-.77-.54-1.09h-.79l.14,4.01h.84l.32-.73c.37.23.88.45,1.54.65.66.2,1.34.31,2.04.31,1.49,0,2.69-.32,3.61-.97M305.97,108.05c.03-1.21.21-2.1.54-2.66.33-.56.77-.84,1.32-.84.32,0,.59.09.8.26.21.17.38.43.5.76.11.29.18.66.23,1.11.04.45.06.89.06,1.32l-3.46.04.01.01ZM312.72,111.5c-.38.57-.84,1.04-1.38,1.41s-1.15.55-1.82.55c-1.24,0-2.14-.38-2.7-1.15-.57-.77-.85-1.89-.85-3.36h7.28v-.7c0-.61-.09-1.19-.28-1.75s-.48-1.04-.89-1.45c-.42-.43-.96-.77-1.6-1.01-.65-.24-1.47-.37-2.48-.37-.92,0-1.75.16-2.49.47-.74.32-1.36.73-1.85,1.24-.49.52-.88,1.12-1.15,1.79s-.4,1.37-.4,2.1c0,.81.12,1.56.37,2.25s.62,1.29,1.12,1.8,1.14.91,1.91,1.22c.77.3,1.69.45,2.75.45.64,0,1.2-.07,1.7-.21.49-.14.98-.35,1.46-.62.45-.26.86-.57,1.21-.93.36-.36.66-.75.91-1.16l-.82-.59v.02ZM301.09,113.88c-.22-.02-.41-.06-.58-.11s-.31-.1-.43-.15c-.22-.09-.36-.22-.44-.38-.08-.16-.12-.37-.12-.64v-5.27c0-1.1-.29-1.98-.88-2.64-.58-.66-1.46-1-2.63-1-.49,0-.95.06-1.38.18s-.78.27-1.04.44c-.24.16-.51.36-.8.61-.29.25-.53.47-.73.65h-.04v-1.56l-.16-.16-5.14.28v.79c.24.02.45.06.65.12.2.06.36.13.49.22.19.14.34.31.45.53s.17.43.17.66v6.27c0,.27-.04.48-.13.65-.09.16-.24.29-.47.37-.13.04-.28.08-.47.1-.18.02-.36.04-.54.06v.79h6.54v-.79c-.16-.02-.33-.06-.51-.11-.17-.05-.32-.11-.43-.17-.16-.09-.28-.21-.35-.38s-.11-.38-.11-.63v-5.78c.09-.11.19-.25.32-.4s.29-.3.5-.44c.24-.16.48-.29.73-.38s.52-.13.8-.13c.52,0,.92.18,1.19.55s.4.92.4,1.65v5.04c0,.29-.03.52-.1.67-.06.15-.17.27-.32.34-.1.05-.25.09-.44.11-.19.02-.36.04-.5.05v.79h6.47v-.79l.03-.01ZM280.17,112.49c-.19.24-.42.44-.68.6-.25.16-.58.24-.98.24-.37,0-.69-.13-.94-.38-.26-.25-.38-.66-.38-1.22,0-.42.08-.79.23-1.11.15-.31.36-.57.63-.77.25-.19.58-.38.97-.56.4-.18.8-.33,1.2-.47l-.04,3.66-.01.01ZM285.55,113.66c-.22,0-.45,0-.72-.02-.26-.01-.45-.04-.58-.1-.2-.09-.35-.23-.45-.42-.1-.19-.14-.44-.14-.76,0-.35.02-1.08.05-2.2.03-1.11.05-2.07.05-2.88,0-.77-.13-1.39-.39-1.87s-.61-.84-1.06-1.09c-.47-.26-.99-.43-1.57-.51-.58-.08-1.22-.12-1.92-.12-.5,0-1.05.06-1.64.18-.59.12-1.11.28-1.56.5-.46.21-.85.47-1.17.79s-.48.68-.48,1.08c0,.47.15.85.46,1.14s.77.44,1.37.44c.42,0,.74-.04.94-.12s.39-.19.56-.33c.12-.11.22-.25.28-.44.07-.18.1-.34.1-.46,0-.27-.05-.56-.15-.85s-.16-.51-.18-.66c.13-.09.3-.18.51-.27s.48-.13.79-.13c.35,0,.64.08.85.24.22.16.37.35.47.58.09.2.15.45.18.74s.04.53.04.71v1.03c-.42.2-1.08.43-1.98.68-.91.25-1.68.5-2.33.74-.34.13-.65.27-.93.42s-.53.34-.75.57c-.24.25-.42.54-.55.87s-.19.72-.19,1.19c0,.81.29,1.46.88,1.96s1.3.74,2.13.74c.56,0,1-.04,1.31-.12s.64-.2.98-.36c.26-.12.5-.27.73-.44.23-.17.46-.38.71-.62h.06c.15.49.43.86.85,1.12s1.06.39,1.94.39c.48,0,.93-.06,1.36-.17.43-.12.8-.24,1.12-.38v-.79h.02ZM272.61,99.4h-8.16v.84c.2.03.46.07.76.14.31.07.57.14.78.24.3.13.49.28.57.45.08.17.12.39.12.65v8.63c0,1.25-.25,2.18-.74,2.8s-1.17.93-2.03.93c-.22,0-.44-.05-.66-.15s-.36-.22-.42-.37v-.14c.41-.33.77-.69,1.09-1.08s.48-.82.48-1.28c0-.54-.19-.99-.55-1.36-.37-.37-.87-.55-1.49-.55-.66,0-1.18.22-1.56.66s-.57.99-.57,1.66c0,1.13.41,2.01,1.23,2.66s1.9.97,3.25.97c.77,0,1.5-.11,2.19-.33.68-.22,1.3-.54,1.85-.97.55-.44.97-.98,1.29-1.63.31-.65.47-1.36.47-2.13v-8.42c0-.26.04-.49.12-.69.08-.2.27-.34.56-.42.25-.07.48-.11.68-.15s.44-.07.73-.11v-.84l.01-.01ZM252.68,114.07c.92-.65,1.38-1.56,1.38-2.73,0-.88-.3-1.61-.89-2.18s-1.53-1.02-2.82-1.35c-.83-.22-1.48-.45-1.94-.69-.46-.24-.69-.64-.69-1.18,0-.41.16-.73.47-.96.32-.23.75-.34,1.3-.34.7,0,1.36.27,1.97.81s1.04,1.19,1.29,1.93h.75l-.17-3.67h-.82l-.23.64c-.37-.16-.83-.3-1.38-.44-.55-.13-1.15-.2-1.8-.2-1.38,0-2.49.31-3.34.94-.85.62-1.28,1.44-1.28,2.45,0,.55.1,1.02.29,1.41.19.39.45.73.77,1.01.37.32.73.55,1.08.69.35.15.77.29,1.25.44.49.14.9.27,1.23.37.33.1.64.22.92.37.25.14.45.3.59.48.14.19.22.42.22.71,0,.53-.16.92-.48,1.18-.32.25-.81.38-1.46.38-.49,0-.96-.11-1.39-.33s-.82-.49-1.16-.82c-.32-.32-.61-.69-.86-1.09-.25-.41-.43-.77-.54-1.09h-.79l.14,4.01h.84l.32-.73c.37.23.88.45,1.54.65.66.2,1.34.31,2.04.31,1.49,0,2.69-.32,3.61-.97M237.45,112.49c-.19.24-.42.44-.67.6-.26.16-.58.24-.98.24-.37,0-.69-.13-.95-.38s-.38-.66-.38-1.22c0-.42.07-.79.23-1.11.15-.31.36-.57.63-.77.25-.19.58-.38.97-.56.4-.18.8-.33,1.2-.47l-.04,3.66-.01.01ZM242.83,113.66c-.22,0-.45,0-.72-.02-.26-.01-.45-.04-.58-.1-.2-.09-.35-.23-.45-.42-.1-.19-.15-.44-.15-.76,0-.35.02-1.08.05-2.2.03-1.11.05-2.07.05-2.88,0-.77-.13-1.39-.39-1.87s-.62-.84-1.06-1.09c-.47-.26-.99-.43-1.57-.51s-1.22-.12-1.92-.12c-.5,0-1.05.06-1.64.18s-1.11.28-1.56.5c-.46.21-.85.47-1.17.79s-.48.68-.48,1.08c0,.47.16.85.46,1.14.31.29.77.44,1.37.44.42,0,.74-.04.94-.12s.39-.19.56-.33c.12-.11.22-.25.28-.44.06-.18.1-.34.1-.46,0-.27-.05-.56-.15-.85-.1-.29-.16-.51-.18-.66.13-.09.3-.18.51-.27.21-.09.48-.13.79-.13.35,0,.64.08.85.24.22.16.37.35.47.58.09.2.15.45.18.74s.04.53.04.71v1.03c-.42.2-1.08.43-1.98.68-.91.25-1.68.5-2.33.74-.34.13-.65.27-.93.42s-.53.34-.75.57c-.24.25-.42.54-.55.87s-.19.72-.19,1.19c0,.81.29,1.46.88,1.96s1.3.74,2.13.74c.56,0,1-.04,1.31-.12s.64-.2.98-.36c.26-.12.5-.27.73-.44.23-.17.46-.38.71-.62h.06c.15.49.43.86.85,1.12.42.26,1.06.39,1.95.39.48,0,.93-.06,1.36-.17.43-.12.8-.24,1.12-.38v-.79h.02ZM229.34,113.88c-.22-.02-.42-.06-.59-.11s-.31-.1-.43-.15c-.21-.09-.35-.21-.43-.37-.08-.16-.12-.37-.12-.64v-5.23c0-1.18-.29-2.08-.88-2.72s-1.42-.96-2.5-.96c-.49,0-.96.06-1.39.18s-.79.27-1.07.45c-.25.16-.53.37-.83.63-.3.26-.56.49-.76.68h-.1c-.23-.59-.62-1.06-1.17-1.41-.55-.36-1.23-.53-2.05-.53-.49,0-.95.06-1.37.17s-.76.26-1.02.43c-.24.15-.5.35-.78.6s-.52.46-.72.64h-.04v-1.52l-.16-.16-5.13.28v.79c.24.02.45.06.65.12.2.06.36.13.49.22.17.12.32.29.44.51s.18.44.18.67v6.27c0,.27-.04.48-.13.64-.09.16-.24.28-.47.37-.13.05-.28.09-.46.11-.18.02-.36.04-.55.05v.79h6.45v-.79c-.16-.02-.32-.06-.47-.11s-.28-.11-.39-.17c-.16-.09-.28-.22-.34-.39-.06-.16-.1-.37-.1-.62v-5.78c.08-.11.18-.24.29-.39s.28-.3.49-.45c.2-.14.42-.26.66-.36s.52-.15.83-.15c.49,0,.87.18,1.13.55.26.37.39.92.39,1.66v5.03c0,.29-.02.52-.07.67s-.14.27-.29.34c-.09.05-.23.09-.43.11-.19.02-.36.04-.49.05v.79h6.11v-.79c-.16-.02-.32-.06-.46-.11-.15-.05-.28-.11-.39-.17-.16-.09-.28-.22-.34-.38-.06-.16-.09-.37-.09-.63v-5.78c.08-.11.18-.24.29-.39s.28-.3.49-.45c.2-.14.42-.26.66-.36s.52-.15.83-.15c.49,0,.87.18,1.13.55.26.37.39.92.39,1.66v5.03c0,.27-.02.48-.06.65s-.14.29-.3.36c-.11.06-.26.09-.43.11-.17.01-.33.03-.49.05v.79h6.39v-.79.01ZM201.54,113.78c-.31.24-.68.36-1.11.36-.47,0-.86-.13-1.17-.39s-.55-.61-.71-1.06c-.19-.52-.32-1.03-.37-1.54-.05-.51-.08-1.16-.08-1.94,0-.6.03-1.17.09-1.72s.16-1.03.31-1.44c.16-.44.4-.81.7-1.09.31-.28.71-.42,1.22-.42.47,0,.85.13,1.16.39.3.26.54.61.72,1.07.14.37.25.88.32,1.53s.11,1.22.11,1.72c0,.76-.04,1.43-.11,2s-.19,1.06-.35,1.46c-.18.47-.42.82-.73,1.06M203.06,104.09c-.76-.28-1.65-.41-2.65-.41s-1.83.14-2.61.41c-.78.28-1.43.67-1.96,1.17-.55.52-.97,1.12-1.24,1.79-.28.67-.41,1.44-.41,2.3s.16,1.67.47,2.37c.32.71.75,1.3,1.29,1.78.57.5,1.22.88,1.95,1.13.74.25,1.54.38,2.42.38,1.01,0,1.91-.14,2.7-.43s1.46-.7,2.03-1.24c.53-.5.94-1.11,1.21-1.81.28-.71.41-1.46.41-2.26s-.14-1.55-.42-2.24c-.28-.69-.69-1.28-1.22-1.78-.55-.5-1.2-.89-1.96-1.17M193.16,113.88c-.23-.03-.42-.06-.58-.11-.16-.04-.3-.09-.43-.15-.22-.09-.36-.22-.44-.38-.08-.16-.12-.37-.12-.64v-5.27c0-1.09-.29-1.97-.88-2.64-.58-.67-1.46-1-2.62-1-.49,0-.96.06-1.38.18-.43.12-.77.27-1.04.44-.31.2-.58.4-.8.6s-.46.42-.74.66h-.04v-7.41l-.16-.17-5.36.28v.79c.22.01.46.05.73.1.27.05.48.13.62.22.19.13.34.32.45.58s.16.5.16.73v12c0,.27-.04.48-.12.64-.08.16-.24.28-.47.37-.14.05-.29.09-.47.11-.18.02-.36.04-.55.05v.79h6.57v-.79c-.16-.02-.34-.06-.51-.11-.18-.05-.32-.11-.43-.17-.18-.1-.3-.23-.37-.38-.06-.15-.1-.36-.1-.63v-5.78c.09-.11.19-.25.32-.4s.29-.3.5-.44c.24-.16.48-.29.73-.38s.52-.13.8-.13c.51,0,.9.18,1.18.55s.41.92.41,1.66v5.04c0,.29-.03.52-.09.67s-.17.27-.32.34c-.09.05-.24.09-.43.11-.19.02-.36.04-.51.05v.79h6.47v-.79l.02.02ZM178.06,99.4h-14.8v4.37h.84c.22-.65.58-1.35,1.07-2.1s.94-1.15,1.36-1.21c.23-.03.51-.05.85-.08.34-.02.63-.03.87-.03h.5v12.09c0,.27-.05.49-.14.69-.09.19-.28.35-.56.46-.14.06-.39.11-.77.14-.38.04-.67.07-.88.09v.84h8.51v-.84c-.24-.03-.54-.08-.89-.15s-.61-.13-.77-.2c-.27-.12-.46-.27-.55-.47s-.14-.43-.14-.68v-11.98h.51c.24,0,.53.01.87.03s.62.05.85.08c.42.06.87.46,1.36,1.21s.85,1.45,1.07,2.1h.84v-4.37.01ZM157.43,113.88c-.22-.02-.42-.06-.59-.11s-.31-.1-.43-.15c-.21-.09-.35-.21-.43-.37-.08-.16-.12-.37-.12-.64v-5.23c0-1.18-.29-2.08-.88-2.72-.58-.64-1.42-.96-2.5-.96-.49,0-.96.06-1.39.18s-.79.27-1.07.45c-.25.16-.53.37-.83.63-.3.26-.56.49-.76.68h-.1c-.23-.59-.62-1.06-1.17-1.41-.55-.36-1.23-.53-2.05-.53-.49,0-.95.06-1.37.17s-.76.26-1.02.43c-.24.15-.5.35-.78.6s-.52.46-.72.64h-.04v-1.52l-.16-.16-5.13.28v.79c.24.02.45.06.65.12.2.06.36.13.49.22.17.12.32.29.44.51s.18.44.18.67v6.27c0,.27-.04.48-.13.64-.09.16-.24.28-.47.37-.13.05-.28.09-.46.11-.18.02-.36.04-.55.05v.79h6.45v-.79c-.16-.02-.32-.06-.47-.11s-.28-.11-.39-.17c-.16-.09-.28-.22-.34-.39-.07-.16-.1-.37-.1-.62v-5.78c.08-.11.18-.24.29-.39s.28-.3.49-.45c.2-.14.42-.26.66-.36s.52-.15.83-.15c.49,0,.87.18,1.13.55.26.37.39.92.39,1.66v5.03c0,.29-.02.52-.07.67s-.14.27-.29.34c-.09.05-.23.09-.43.11-.19.02-.36.04-.49.05v.79h6.11v-.79c-.16-.02-.32-.06-.46-.11-.15-.05-.28-.11-.39-.17-.16-.09-.28-.22-.34-.38-.06-.16-.09-.37-.09-.63v-5.78c.08-.11.18-.24.29-.39s.28-.3.49-.45c.2-.14.42-.26.66-.36s.52-.15.83-.15c.49,0,.87.18,1.13.55.26.37.39.92.39,1.66v5.03c0,.27-.02.48-.06.65s-.14.29-.3.36c-.11.06-.26.09-.43.11-.17.01-.33.03-.49.05v.79h6.39v-.79.01ZM129.32,112.49c-.19.24-.42.44-.68.6-.26.16-.58.24-.98.24-.37,0-.69-.13-.95-.38-.25-.25-.38-.66-.38-1.22,0-.42.07-.79.23-1.11.15-.31.36-.57.63-.77.25-.19.58-.38.97-.56.4-.18.8-.33,1.2-.47l-.04,3.66v.01ZM134.7,113.66c-.22,0-.45,0-.72-.02-.26-.01-.45-.04-.58-.1-.2-.09-.35-.23-.45-.42-.1-.19-.14-.44-.14-.76,0-.35.02-1.08.05-2.2.03-1.11.05-2.07.05-2.88,0-.77-.13-1.39-.39-1.87s-.62-.84-1.06-1.09c-.47-.26-.99-.43-1.57-.51s-1.22-.12-1.92-.12c-.5,0-1.05.06-1.64.18s-1.11.28-1.56.5c-.46.21-.85.47-1.17.79s-.48.68-.48,1.08c0,.47.15.85.46,1.14s.77.44,1.37.44c.42,0,.74-.04.94-.12.2-.08.39-.19.56-.33.12-.11.22-.25.28-.44.06-.18.1-.34.1-.46,0-.27-.05-.56-.15-.85s-.16-.51-.18-.66c.13-.09.3-.18.51-.27s.48-.13.79-.13c.35,0,.64.08.85.24s.37.35.47.58c.09.2.15.45.18.74s.04.53.04.71v1.03c-.42.2-1.08.43-1.98.68-.91.25-1.68.5-2.33.74-.34.13-.65.27-.93.42s-.53.34-.75.57c-.24.25-.42.54-.55.87s-.19.72-.19,1.19c0,.81.29,1.46.88,1.96s1.3.74,2.13.74c.56,0,1-.04,1.31-.12s.64-.2.98-.36c.26-.12.5-.27.73-.44s.46-.38.71-.62h.06c.15.49.43.86.85,1.12.42.26,1.06.39,1.94.39.48,0,.93-.06,1.36-.17.43-.12.8-.24,1.12-.38v-.79h.02ZM115.04,113.2c-.29.17-.65.25-1.08.25-.46,0-.85-.11-1.18-.32-.33-.22-.59-.51-.8-.89s-.35-.8-.43-1.26-.12-.98-.12-1.57c0-1.48.23-2.62.69-3.43s1.05-1.22,1.76-1.22c.3,0,.57.06.81.17s.43.25.58.4c.16.18.28.37.37.57.09.2.16.38.21.55v6.08c-.24.28-.51.5-.79.67M121.33,113.66c-.19,0-.42-.03-.71-.06-.29-.04-.51-.09-.66-.17-.2-.11-.34-.25-.43-.44-.09-.19-.13-.42-.13-.69v-14.11l-.16-.17-5.82.28v.79c.34.03.67.08,1.01.15.33.07.61.18.83.34.18.13.32.31.43.54s.16.48.16.75v3.52c-.31-.18-.72-.34-1.24-.47-.52-.13-1.07-.2-1.66-.2-1.49,0-2.76.54-3.81,1.62-1.05,1.08-1.57,2.38-1.57,3.9,0,1.71.47,3.1,1.41,4.18s2.13,1.61,3.58,1.61c.61,0,1.21-.14,1.81-.43.6-.28,1.07-.61,1.42-1l.07.02v.99l.16.15,5.31-.31s0-.79,0-.79ZM94.91,108.49l2.18-5.52,2.21,5.52h-4.39ZM107.32,113.83c-.22-.01-.46-.05-.72-.11-.27-.06-.5-.14-.7-.26-.27-.16-.47-.32-.61-.5s-.26-.37-.36-.59c-.56-1.32-1.24-2.99-2.03-4.99s-1.9-4.74-3.3-8.2h-2.15c-1.01,2.44-1.94,4.67-2.77,6.7-.84,2.02-1.67,4.04-2.5,6.06-.14.34-.31.64-.51.89-.2.25-.45.46-.75.64-.17.11-.41.19-.71.25-.3.06-.56.1-.8.11v.84h6.27v-.84c-.81-.07-1.39-.19-1.74-.35-.35-.16-.52-.36-.52-.59,0-.07.01-.2.04-.38.02-.18.1-.47.24-.87.11-.31.23-.66.38-1.06.15-.39.28-.74.4-1.03h5.27l1.3,3.16c.05.12.08.22.09.29.01.07.02.14.02.19,0,.16-.26.3-.78.41s-.98.18-1.36.21v.84h8.32v-.84l-.02.02Z" fill="#231f20"/>
    </g>
  </g>
</svg>