<?xml version="1.0" encoding="UTF-8"?>
<svg id="svg5" xmlns="http://www.w3.org/2000/svg" version="1.1" xmlns:svg="http://www.w3.org/2000/svg" xmlns:xlink="http://www.w3.org/1999/xlink" viewBox="0 0 359.41 26.064">
  <!-- Generator: Adobe Illustrator 30.6.0, SVG Export Plug-In . SVG Version: 2.1.4 Build 109)  -->
  <defs>
    <clipPath id="clippath">
      <rect x="0" width="359.409" height="26.064" fill="none"/>
    </clipPath>
  </defs>
  <g clip-path="url(#clippath)">
    <path d="M357.3,24.503c1.406-.985,2.11-2.376,2.11-4.171,0-1.346-.454-2.455-1.361-3.326-.908-.871-2.339-1.557-4.296-2.061-1.268-.328-2.254-.68-2.96-1.051-.705-.373-1.057-.974-1.057-1.806,0-.625.24-1.112.723-1.462.48-.351,1.143-.526,1.987-.526,1.073,0,2.074.413,3.005,1.24.93.828,1.587,1.81,1.97,2.949h1.149l-.262-5.6h-1.248l-.345.969c-.571-.241-1.273-.463-2.11-.666-.839-.202-1.755-.303-2.751-.303-2.102,0-3.802.476-5.1,1.428-1.297.953-1.946,2.201-1.946,3.744,0,.833.148,1.55.443,2.152.296.602.69,1.117,1.183,1.544.569.482,1.12.834,1.65,1.059.532.225,1.17.447,1.914.665.744.219,1.371.405,1.88.559.509.153.977.339,1.404.559.384.209.685.455.903.739.219.285.328.646.328,1.083,0,.81-.244,1.411-.731,1.798-.487.389-1.229.584-2.225.584-.755,0-1.464-.17-2.127-.51-.662-.339-1.252-.755-1.766-1.248-.493-.493-.93-1.048-1.314-1.666-.384-.619-.657-1.175-.821-1.668h-1.199l.214,6.125h1.28l.494-1.116c.557.35,1.343.681,2.357.993,1.012.312,2.05.468,3.112.468,2.267,0,4.102-.493,5.51-1.479M330.425,15.322c.043-1.849.318-3.202.821-4.057.503-.853,1.176-1.28,2.02-1.28.493,0,.9.131,1.223.394.323.262.577.651.763,1.166.164.437.28,1.001.346,1.692.065.689.098,1.363.098,2.02l-5.272.065ZM340.722,20.594c-.581.865-1.281,1.58-2.102,2.144-.821.564-1.747.845-2.775.845-1.884,0-3.258-.585-4.123-1.758-.865-1.171-1.297-2.879-1.297-5.124h11.102v-1.067c0-.93-.143-1.82-.428-2.669-.284-.848-.739-1.584-1.362-2.209-.647-.657-1.462-1.171-2.448-1.544-.985-.371-2.244-.559-3.777-.559-1.401,0-2.669.241-3.802.723s-2.071,1.112-2.817,1.888c-.755.799-1.338,1.712-1.748,2.735-.411,1.024-.616,2.094-.616,3.211,0,1.237.19,2.384.567,3.44.378,1.057.95,1.973,1.716,2.751.767.778,1.739,1.396,2.915,1.856,1.178.459,2.576.689,4.197.689.974,0,1.837-.106,2.587-.32.75-.213,1.491-.528,2.225-.943.69-.394,1.306-.868,1.848-1.421.542-.552,1.004-1.141,1.388-1.766l-1.248-.903ZM322.976,24.224c-.328-.032-.622-.087-.879-.164-.257-.077-.474-.153-.649-.23-.328-.141-.553-.334-.673-.575-.121-.241-.18-.564-.18-.969v-8.047c0-1.676-.447-3.019-1.339-4.032-.892-1.012-2.232-1.518-4.015-1.518-.746,0-1.446.093-2.102.279-.657.187-1.188.411-1.594.673-.373.241-.778.553-1.215.937-.437.384-.81.712-1.117.985h-.065v-2.381l-.246-.246-7.835.427v1.199c.362.032.693.093.993.18.301.087.55.197.748.328.284.209.514.476.689.805.175.328.262.662.262,1.001v9.559c0,.405-.066.734-.196.985-.132.252-.373.439-.723.559-.196.066-.435.117-.715.156-.279.038-.556.069-.829.09v1.199h9.985v-1.199c-.252-.032-.509-.087-.773-.164-.262-.077-.482-.164-.657-.262-.252-.132-.432-.326-.541-.583-.11-.257-.164-.577-.164-.961v-8.82c.131-.175.293-.377.485-.607.192-.23.448-.455.766-.674.363-.252.734-.443,1.112-.575.38-.131.787-.197,1.227-.197.801,0,1.408.281,1.82.845.412.564.618,1.405.618,2.521v7.686c0,.45-.05.789-.148,1.019-.098.229-.262.405-.493.525-.153.077-.378.132-.673.164-.296.032-.548.061-.756.082v1.199h9.871v-1.199ZM291.051,22.103c-.297.362-.641.666-1.03.914-.39.246-.888.37-1.493.37-.571,0-1.051-.192-1.441-.576-.39-.385-.585-1.005-.585-1.861,0-.647.116-1.21.346-1.686.231-.478.549-.869.956-1.178.385-.296.879-.579,1.483-.848.604-.268,1.215-.507,1.83-.716l-.066,5.581ZM299.263,23.88c-.328,0-.692-.008-1.092-.026-.4-.016-.693-.067-.879-.155-.307-.143-.534-.357-.682-.641-.147-.285-.221-.674-.221-1.167,0-.536.024-1.653.074-3.35.048-1.697.074-3.164.074-4.401,0-1.171-.201-2.121-.6-2.849-.4-.728-.938-1.284-1.618-1.668-.712-.394-1.51-.654-2.397-.779-.887-.127-1.861-.19-2.923-.19-.767,0-1.599.09-2.497.272-.898.18-1.692.435-2.381.763-.701.318-1.295.72-1.782,1.207-.487.487-.731,1.038-.731,1.65,0,.712.236,1.289.708,1.734.472.443,1.17.665,2.092.665.647,0,1.128-.061,1.441-.18.312-.121.595-.291.848-.51.187-.164.33-.385.428-.665.1-.279.148-.511.148-.699,0-.416-.077-.848-.23-1.296-.153-.45-.248-.783-.28-1.003.198-.141.458-.281.781-.419.323-.137.725-.205,1.207-.205.537,0,.969.12,1.297.361s.571.537.724.887c.141.307.234.684.279,1.133.043.448.066.81.066,1.083v1.577c-.637.307-1.646.655-3.027,1.044-1.382.389-2.567.764-3.553,1.127-.515.197-.989.411-1.423.641-.433.23-.814.521-1.143.872-.362.384-.642.825-.84,1.324-.198.499-.296,1.105-.296,1.817,0,1.24.45,2.234,1.349,2.985s1.985,1.127,3.257,1.127c.856,0,1.522-.061,1.999-.18.478-.121.973-.301,1.489-.542.394-.186.766-.411,1.11-.673.346-.262.705-.58,1.078-.953h.098c.229.746.661,1.318,1.295,1.716.634.4,1.622.6,2.966.6.732,0,1.425-.087,2.082-.262.655-.176,1.223-.367,1.704-.575v-1.199ZM279.526,2.119h-12.448v1.281c.307.043.696.114,1.163.213.467.1.867.219,1.197.362.462.198.754.428.875.69.121.262.182.592.182.987v13.164c0,1.907-.377,3.331-1.129,4.273-.752.942-1.786,1.413-3.104,1.413-.341,0-.676-.075-1.005-.229-.328-.153-.542-.339-.642-.559v-.214c.625-.503,1.18-1.054,1.668-1.65s.731-1.245.731-1.946c0-.821-.283-1.511-.847-2.07-.564-.559-1.322-.837-2.275-.837-1.007,0-1.798.334-2.373,1.001-.575.669-.863,1.511-.863,2.53,0,1.719.627,3.07,1.882,4.055,1.253.987,2.903,1.479,4.952,1.479,1.182,0,2.293-.168,3.334-.502,1.039-.334,1.981-.829,2.824-1.487.833-.668,1.487-1.495,1.964-2.482.475-.985.713-2.07.713-3.254V5.486c0-.394.063-.744.19-1.051.125-.307.413-.521.861-.641.384-.1.728-.175,1.035-.23s.678-.11,1.117-.164v-1.281ZM249.11,24.503c1.406-.985,2.11-2.376,2.11-4.171,0-1.346-.454-2.455-1.361-3.326-.907-.871-2.339-1.557-4.296-2.061-1.268-.328-2.254-.68-2.958-1.051-.705-.373-1.058-.974-1.058-1.806,0-.625.241-1.112.723-1.462.482-.351,1.144-.526,1.987-.526,1.073,0,2.075.413,3.005,1.24.931.828,1.588,1.81,1.972,2.949h1.149l-.264-5.6h-1.248l-.345.969c-.569-.241-1.273-.463-2.11-.666-.837-.202-1.755-.303-2.751-.303-2.102,0-3.802.476-5.1,1.428-1.297.953-1.946,2.201-1.946,3.744,0,.833.148,1.55.444,2.152.295.602.689,1.117,1.182,1.544.569.482,1.12.834,1.651,1.059.53.225,1.168.447,1.913.665.744.219,1.371.405,1.88.559.51.153.977.339,1.405.559.382.209.684.455.903.739.218.285.328.646.328,1.083,0,.81-.244,1.411-.731,1.798-.487.389-1.23.584-2.226.584-.755,0-1.464-.17-2.127-.51-.662-.339-1.25-.755-1.766-1.248-.493-.493-.93-1.048-1.314-1.666-.384-.619-.657-1.175-.821-1.668h-1.199l.214,6.125h1.281l.493-1.116c.559.35,1.343.681,2.357.993,1.012.312,2.05.468,3.112.468,2.267,0,4.104-.493,5.51-1.479M225.877,22.103c-.296.362-.639.666-1.03.914-.39.246-.887.37-1.491.37-.572,0-1.052-.192-1.443-.576-.39-.385-.584-1.005-.584-1.861,0-.647.114-1.21.346-1.686.23-.478.549-.869.956-1.178.385-.296.879-.579,1.483-.848.604-.268,1.214-.507,1.829-.716l-.066,5.581ZM234.09,23.88c-.328,0-.693-.008-1.093-.026-.4-.016-.692-.067-.879-.155-.306-.143-.533-.357-.681-.641-.148-.285-.222-.674-.222-1.167,0-.536.026-1.653.074-3.35.05-1.697.074-3.164.074-4.401,0-1.171-.199-2.121-.599-2.849-.4-.728-.939-1.284-1.618-1.668-.712-.394-1.511-.654-2.398-.779-.887-.127-1.861-.19-2.923-.19-.766,0-1.598.09-2.495.272-.899.18-1.692.435-2.382.763-.7.318-1.295.72-1.782,1.207-.487.487-.731,1.038-.731,1.65,0,.712.237,1.289.709,1.734.471.443,1.168.665,2.092.665.647,0,1.128-.061,1.441-.18.312-.121.595-.291.848-.51.186-.164.328-.385.428-.665.098-.279.148-.511.148-.699,0-.416-.077-.848-.23-1.296-.155-.45-.248-.783-.28-1.003.196-.141.456-.281.779-.419.324-.137.727-.205,1.209-.205.536,0,.969.12,1.297.361.328.241.569.537.723.887.143.307.236.684.28,1.133.043.448.065.81.065,1.083v1.577c-.635.307-1.645.655-3.026,1.044-1.382.389-2.567.764-3.553,1.127-.515.197-.991.411-1.424.641-.432.23-.813.521-1.143.872-.362.384-.642.825-.838,1.324-.198.499-.296,1.105-.296,1.817,0,1.24.45,2.234,1.349,2.985s1.985,1.127,3.257,1.127c.855,0,1.521-.061,1.999-.18.476-.121.973-.301,1.489-.542.394-.186.764-.411,1.11-.673.345-.262.704-.58,1.077-.953h.098c.23.746.662,1.318,1.295,1.716.634.4,1.623.6,2.968.6.731,0,1.425-.087,2.081-.262.655-.176,1.223-.367,1.705-.575v-1.199ZM213.505,24.224c-.341-.032-.638-.087-.895-.164-.258-.077-.474-.153-.649-.23-.318-.131-.537-.32-.657-.567-.121-.246-.182-.572-.182-.977v-7.981c0-1.795-.446-3.18-1.338-4.155s-2.166-1.462-3.818-1.462c-.755,0-1.464.093-2.127.279-.664.187-1.207.416-1.634.69-.384.241-.805.561-1.265.96-.46.401-.849.748-1.166,1.043h-.148c-.351-.898-.945-1.618-1.782-2.159-.837-.542-1.88-.813-3.129-.813-.755,0-1.451.087-2.085.262-.635.175-1.156.394-1.561.657-.371.23-.769.534-1.19.911-.421.378-.786.704-1.093.977h-.065v-2.315l-.246-.246-7.835.427v1.199c.362.032.692.093.993.18.301.087.55.197.748.328.262.186.486.447.673.781.186.334.279.676.279,1.026v9.559c0,.405-.066.731-.196.977-.132.246-.373.435-.723.567-.198.077-.433.132-.707.164-.273.032-.553.061-.837.082v1.199h9.837v-1.199c-.252-.032-.49-.087-.715-.164-.225-.077-.424-.164-.599-.262-.252-.143-.427-.339-.526-.592-.098-.252-.147-.568-.147-.952v-8.82c.12-.164.268-.361.444-.591.175-.23.423-.46.742-.69.307-.218.645-.402,1.012-.549.367-.148.787-.222,1.26-.222.747,0,1.32.281,1.721.845.401.564.602,1.411.602,2.538v7.669c0,.45-.036.789-.106,1.019-.07.229-.219.405-.448.525-.141.077-.358.132-.651.164-.293.032-.542.061-.748.082v1.199h9.327v-1.199c-.249-.032-.486-.087-.708-.164-.222-.077-.421-.164-.594-.262-.25-.143-.421-.336-.514-.583-.092-.246-.139-.567-.139-.961v-8.82c.121-.164.269-.361.445-.591.175-.23.423-.46.74-.69.308-.218.646-.402,1.013-.549.367-.148.787-.222,1.26-.222.747,0,1.32.281,1.721.845.401.564.602,1.411.602,2.538v7.669c0,.405-.034.736-.098.993-.065.257-.218.441-.456.55-.174.087-.39.143-.651.164-.261.022-.51.05-.748.082v1.199h9.755v-1.199ZM171.088,24.068c-.471.367-1.035.55-1.692.55-.723,0-1.319-.198-1.79-.591-.471-.394-.832-.931-1.083-1.61-.296-.789-.483-1.575-.559-2.357-.077-.783-.116-1.771-.116-2.965,0-.908.044-1.782.132-2.619.087-.837.246-1.568.476-2.192.252-.678.61-1.232,1.075-1.658.466-.428,1.086-.641,1.864-.641.712,0,1.3.197,1.766.591.464.394.829.937,1.092,1.626.219.569.384,1.347.493,2.332.109.985.164,1.861.164,2.627,0,1.16-.058,2.179-.172,3.055-.114.876-.293,1.62-.534,2.233-.273.712-.646,1.252-1.116,1.618M173.411,9.287c-1.166-.421-2.516-.633-4.047-.633-1.468,0-2.795.211-3.984.633-1.187.421-2.187,1.016-2.996,1.782-.844.799-1.476,1.711-1.898,2.735-.421,1.023-.633,2.192-.633,3.506,0,1.335.241,2.542.723,3.62.482,1.079,1.139,1.985,1.972,2.719.864.766,1.857,1.342,2.98,1.724,1.122.384,2.351.575,3.688.575,1.544,0,2.915-.219,4.113-.657,1.199-.437,2.232-1.067,3.096-1.888.81-.766,1.427-1.689,1.848-2.767.421-1.078.633-2.226.633-3.441,0-1.225-.214-2.365-.641-3.416-.427-1.051-1.046-1.954-1.856-2.709-.832-.766-1.83-1.361-2.997-1.782M158.298,24.224c-.35-.043-.646-.098-.887-.164-.241-.066-.459-.143-.657-.23-.328-.141-.553-.334-.673-.575-.121-.241-.18-.564-.18-.969v-8.047c0-1.664-.447-3.005-1.338-4.023-.89-1.019-2.221-1.528-3.992-1.528-.755,0-1.458.093-2.108.279-.651.187-1.178.411-1.583.673-.48.307-.888.611-1.222.913s-.708.638-1.122,1.009h-.066V.263l-.248-.262-8.178.427v1.199c.328.022.701.074,1.117.156.416.082.734.194.953.336.295.197.525.493.689.887.164.394.246.766.246,1.117v18.311c0,.405-.063.731-.19.977-.127.246-.367.435-.72.567-.209.077-.448.132-.719.164-.271.032-.548.061-.834.082v1.199h10.018v-1.199c-.252-.032-.511-.087-.779-.164-.269-.077-.485-.164-.649-.262-.275-.153-.46-.347-.559-.583-.098-.236-.148-.556-.148-.961v-8.82c.132-.175.292-.377.485-.607.191-.23.445-.455.763-.674.362-.252.731-.443,1.109-.575.378-.131.786-.197,1.223-.197.777,0,1.377.279,1.798.837.421.559.633,1.402.633,2.529v7.686c0,.45-.047.789-.14,1.019-.093.229-.254.405-.485.525-.143.077-.361.132-.657.164-.295.032-.553.061-.771.082v1.199h9.87v-1.199ZM135.261,2.119h-22.582v6.668h1.28c.339-.996.883-2.063,1.631-3.202.748-1.139,1.439-1.752,2.073-1.84.349-.044.781-.082,1.293-.116.514-.032.956-.048,1.328-.048h.77v18.443c0,.405-.071.755-.214,1.051-.143.295-.427.532-.853.707-.209.087-.6.162-1.175.221-.575.061-1.022.108-1.338.14v1.281h12.991v-1.281c-.373-.043-.825-.117-1.355-.222-.532-.104-.923-.205-1.175-.303-.416-.176-.694-.413-.837-.715-.143-.301-.214-.649-.214-1.043V3.581h.771c.371,0,.813.016,1.327.048.513.034.945.071,1.293.116.634.087,1.326.701,2.074,1.84.748,1.139,1.291,2.206,1.63,3.202h1.281V2.119ZM103.786,24.224c-.339-.032-.638-.087-.895-.164-.257-.077-.474-.153-.649-.23-.318-.131-.537-.32-.657-.567-.121-.246-.182-.572-.182-.977v-7.981c0-1.795-.445-3.18-1.338-4.155-.892-.974-2.166-1.462-3.818-1.462-.755,0-1.464.093-2.127.279-.662.187-1.207.416-1.634.69-.384.241-.805.561-1.265.96-.46.401-.848.748-1.166,1.043h-.148c-.351-.898-.945-1.618-1.782-2.159-.837-.542-1.88-.813-3.129-.813-.755,0-1.451.087-2.085.262-.635.175-1.156.394-1.56.657-.373.23-.77.534-1.191.911-.421.378-.786.704-1.093.977h-.065v-2.315l-.246-.246-7.835.427v1.199c.362.032.693.093.993.18.301.087.55.197.748.328.262.186.487.447.673.781.186.334.279.676.279,1.026v9.559c0,.405-.065.731-.197.977-.132.246-.373.435-.723.567-.197.077-.432.132-.707.164-.273.032-.553.061-.837.082v1.199h9.837v-1.199c-.252-.032-.49-.087-.715-.164-.223-.077-.424-.164-.599-.262-.252-.143-.427-.339-.525-.592-.1-.252-.148-.568-.148-.952v-8.82c.12-.164.268-.361.444-.591.175-.23.423-.46.742-.69.307-.218.645-.402,1.012-.549.367-.148.789-.222,1.26-.222.747,0,1.32.281,1.721.845.401.564.602,1.411.602,2.538v7.669c0,.45-.035.789-.106,1.019-.07.229-.219.405-.448.525-.14.077-.358.132-.651.164-.292.032-.542.061-.748.082v1.199h9.328v-1.199c-.25-.032-.486-.087-.709-.164-.222-.077-.42-.164-.594-.262-.25-.143-.421-.336-.514-.583-.092-.246-.137-.567-.137-.961v-8.82c.12-.164.268-.361.444-.591.175-.23.423-.46.742-.69.307-.218.645-.402,1.012-.549.367-.148.787-.222,1.26-.222.747,0,1.32.281,1.721.845.401.564.602,1.411.602,2.538v7.669c0,.405-.032.736-.098.993-.065.257-.217.441-.456.55-.174.087-.39.143-.651.164-.26.022-.51.05-.748.082v1.199h9.755v-1.199ZM60.906,22.103c-.297.362-.641.666-1.031.914-.39.246-.887.37-1.491.37-.572,0-1.053-.192-1.443-.576-.389-.385-.584-1.005-.584-1.861,0-.647.114-1.21.346-1.686.23-.478.549-.869.956-1.178.385-.296.879-.579,1.483-.848.604-.268,1.214-.507,1.83-.716l-.066,5.581ZM69.118,23.88c-.328,0-.693-.008-1.093-.026-.4-.016-.692-.067-.878-.155-.307-.143-.534-.357-.682-.641-.148-.285-.221-.674-.221-1.167,0-.536.024-1.653.073-3.35.05-1.697.074-3.164.074-4.401,0-1.171-.199-2.121-.599-2.849-.4-.728-.939-1.284-1.618-1.668-.712-.394-1.511-.654-2.397-.779-.887-.127-1.863-.19-2.923-.19-.767,0-1.599.09-2.497.272-.898.18-1.692.435-2.382.763-.7.318-1.295.72-1.781,1.207-.489.487-.731,1.038-.731,1.65,0,.712.236,1.289.708,1.734.472.443,1.17.665,2.092.665.647,0,1.128-.061,1.441-.18.312-.121.595-.291.848-.51.187-.164.33-.385.428-.665.098-.279.148-.511.148-.699,0-.416-.077-.848-.23-1.296-.153-.45-.248-.783-.28-1.003.197-.141.456-.281.781-.419.323-.137.725-.205,1.207-.205.537,0,.969.12,1.297.361s.569.537.723.887c.143.307.236.684.28,1.133.043.448.066.81.066,1.083v1.577c-.637.307-1.646.655-3.027,1.044-1.382.389-2.567.764-3.553,1.127-.515.197-.989.411-1.423.641-.433.23-.814.521-1.144.872-.362.384-.641.825-.839,1.324-.198.499-.296,1.105-.296,1.817,0,1.24.45,2.234,1.349,2.985s1.985,1.127,3.257,1.127c.856,0,1.522-.061,1.999-.18.476-.121.973-.301,1.489-.542.394-.186.764-.411,1.11-.673.346-.262.705-.58,1.078-.953h.098c.229.746.661,1.318,1.295,1.716.634.4,1.622.6,2.966.6.732,0,1.425-.087,2.081-.262.655-.176,1.225-.367,1.705-.575v-1.199ZM39.119,23.181c-.436.257-.988.386-1.654.386-.7,0-1.297-.164-1.794-.493s-.904-.783-1.221-1.363-.538-1.223-.664-1.93c-.125-.705-.188-1.502-.188-2.389,0-2.256.35-4.001,1.048-5.24.699-1.237,1.595-1.855,2.686-1.855.459,0,.872.087,1.237.262.366.175.658.377.878.607.24.275.428.564.565.871.136.307.242.585.319.837v9.28c-.371.427-.775.769-1.213,1.026M48.707,23.88c-.283-.011-.645-.044-1.086-.098-.441-.055-.775-.143-1.004-.264-.306-.164-.526-.388-.662-.673-.136-.284-.203-.635-.203-1.051V.263L45.504,0l-8.884.427v1.199c.515.043,1.027.117,1.536.222.509.104.934.276,1.273.517.273.197.493.474.657.829.164.357.246.736.246,1.141v5.37c-.47-.273-1.098-.511-1.886-.715-.787-.202-1.63-.303-2.526-.303-2.275,0-4.213.826-5.814,2.479-1.602,1.654-2.402,3.635-2.402,5.945,0,2.607.716,4.731,2.148,6.373,1.432,1.642,3.253,2.463,5.462,2.463.929,0,1.851-.215,2.763-.649.914-.432,1.638-.938,2.174-1.518l.114.032v1.511l.246.229,8.097-.475v-1.199ZM8.403,15.997l3.324-8.424,3.373,8.424h-6.697ZM27.345,24.142c-.328-.022-.696-.077-1.101-.164-.405-.087-.76-.219-1.067-.394-.405-.241-.717-.495-.935-.763-.219-.269-.4-.567-.542-.895-.853-2.015-1.888-4.555-3.104-7.621-1.215-3.066-2.896-7.237-5.042-12.514h-3.285c-1.544,3.723-2.953,7.128-4.229,10.215-1.275,3.088-2.548,6.17-3.818,9.245-.207.526-.467.981-.779,1.363-.312.384-.693.707-1.141.969-.264.164-.622.293-1.077.386-.454.093-.861.151-1.223.172v1.281h9.559v-1.281c-1.236-.109-2.12-.288-2.65-.534s-.795-.544-.795-.895c0-.109.019-.3.058-.575.038-.273.16-.716.367-1.33.163-.471.355-1.007.579-1.61.223-.602.428-1.128.612-1.576h8.046l1.988,4.828c.077.187.124.334.14.444.016.109.024.207.024.295,0,.252-.398.463-1.197.633-.797.17-1.491.277-2.081.32v1.281h12.695v-1.281Z" fill="#231f20"/>
  </g>
</svg>