<?xml version="1.0" encoding="UTF-8" standalone="no"?>
<svg
   version="1.1"
   viewBox="0 0 443.97 254.5"
   id="svg5"
   width="443.97"
   height="254.5"
   xmlns="http://www.w3.org/2000/svg"
   xmlns:svg="http://www.w3.org/2000/svg">
  <defs
     id="defs2">
    <style
       id="style1">
      .st0 {
        fill: #fff;
      }

      .st1 {
        fill: none;
      }

      .st2 {
        fill: #ec008c;
      }

      .st3 {
        clip-path: url(#clippath-1);
      }

      .st4 {
        fill: #231f20;
      }

      .st5 {
        display: none;
      }

      .st6 {
        clip-path: url(#clippath);
      }
    </style>
    <clipPath
       id="clippath">
      <rect
         class="st1"
         x="546.01001"
         y="384.75"
         width="443.97"
         height="254.49001"
         id="rect1" />
    </clipPath>
    <clipPath
       id="clippath-1">
      <rect
         class="st1"
         x="634.39001"
         y="473.26001"
         width="301.48001"
         height="65.300003"
         id="rect2" />
    </clipPath>
  </defs>
  <g
     id="Layer_3"
     transform="translate(-546.01,-384.75)">
    <g
       class="st6"
       clip-path="url(#clippath)"
       id="g2">
      <path
         class="st4"
         d="m 989.99,384.8 h -54.08 v 157.39 c 0,4.63 -0.17,9.65 -0.52,15.08 -0.35,5.43 -1.33,10.46 -2.95,15.08 -1.62,4.63 -4.16,8.49 -7.63,11.61 -3.47,3.12 -8.32,4.68 -14.56,4.68 -6.24,0 -11.39,-2.08 -16.12,-6.24 -4.74,-4.16 -7.45,-9.24 -8.15,-15.25 l -49.58,12.13 c 3.93,19.65 12.59,34.09 26,43.34 13.4,9.24 29.81,13.87 49.23,13.87 16.64,0 30.1,-2.49 40.39,-7.45 10.28,-4.97 18.2,-11.55 23.75,-19.76 5.55,-8.2 9.3,-17.62 11.27,-28.26 1.96,-10.63 2.95,-21.61 2.95,-32.93 z"
         id="path2" />
    </g>
    <polygon
       class="st4"
       points="601.11,639.25 634.31,473.08 667.52,639.25 722.62,639.25 671.76,384.75 596.87,384.75 546.01,639.25 "
       id="polygon2" />
    <rect
       class="st4"
       x="766.88"
       y="384.81"
       width="54.029999"
       height="251.69"
       id="rect3" />
    <rect
       class="st4"
       x="700.28003"
       y="384.81"
       width="217.97"
       height="54.029999"
       id="rect4" />
    <rect
       class="st0"
       x="634.39001"
       y="473.26001"
       width="301.48001"
       height="65.300003"
       id="rect5" />
    <g
       class="st3"
       clip-path="url(#clippath-1)"
       id="g5">
      <path
         class="st4"
         d="m 912.83,514.06 c 1.04,-0.73 1.57,-1.76 1.57,-3.1 0,-1 -0.34,-1.82 -1.01,-2.47 -0.67,-0.65 -1.74,-1.16 -3.19,-1.53 -0.94,-0.24 -1.68,-0.51 -2.2,-0.78 -0.52,-0.28 -0.79,-0.72 -0.79,-1.34 0,-0.46 0.18,-0.83 0.54,-1.09 0.36,-0.26 0.85,-0.39 1.48,-0.39 0.8,0 1.54,0.31 2.23,0.92 0.69,0.62 1.18,1.35 1.46,2.19 h 0.85 l -0.19,-4.16 h -0.93 l -0.26,0.72 c -0.42,-0.18 -0.95,-0.34 -1.57,-0.49 -0.62,-0.15 -1.3,-0.23 -2.04,-0.23 -1.56,0 -2.83,0.35 -3.79,1.06 -0.96,0.71 -1.45,1.63 -1.45,2.78 0,0.62 0.11,1.15 0.33,1.6 0.22,0.45 0.51,0.83 0.88,1.15 0.42,0.36 0.83,0.62 1.23,0.79 0.39,0.17 0.87,0.33 1.42,0.49 0.55,0.16 1.02,0.3 1.4,0.42 0.38,0.11 0.73,0.25 1.04,0.41 0.29,0.15 0.51,0.34 0.67,0.55 0.16,0.21 0.24,0.48 0.24,0.81 0,0.6 -0.18,1.05 -0.54,1.34 -0.36,0.29 -0.91,0.43 -1.65,0.43 -0.56,0 -1.09,-0.13 -1.58,-0.38 -0.49,-0.25 -0.93,-0.56 -1.31,-0.93 -0.37,-0.37 -0.69,-0.78 -0.98,-1.24 -0.29,-0.46 -0.49,-0.87 -0.61,-1.24 h -0.89 l 0.16,4.55 h 0.95 l 0.37,-0.83 c 0.41,0.26 1,0.51 1.75,0.74 0.75,0.23 1.52,0.35 2.31,0.35 1.68,0 3.05,-0.37 4.09,-1.1 m -19.96,-6.82 c 0.03,-1.37 0.24,-2.38 0.61,-3.01 0.37,-0.63 0.87,-0.95 1.5,-0.95 0.37,0 0.67,0.1 0.91,0.29 0.24,0.19 0.43,0.48 0.57,0.87 0.12,0.32 0.21,0.74 0.26,1.26 0.05,0.51 0.07,1.01 0.07,1.5 l -3.92,0.05 z m 7.65,3.92 c -0.43,0.64 -0.95,1.17 -1.56,1.59 -0.61,0.42 -1.3,0.63 -2.06,0.63 -1.4,0 -2.42,-0.44 -3.06,-1.31 -0.64,-0.87 -0.96,-2.14 -0.96,-3.81 h 8.25 v -0.79 c 0,-0.69 -0.11,-1.35 -0.32,-1.98 -0.21,-0.63 -0.55,-1.18 -1.01,-1.64 -0.48,-0.49 -1.09,-0.87 -1.82,-1.15 -0.73,-0.28 -1.67,-0.41 -2.81,-0.41 -1.04,0 -1.98,0.18 -2.83,0.54 -0.84,0.36 -1.54,0.83 -2.09,1.4 -0.56,0.59 -0.99,1.27 -1.3,2.03 -0.3,0.76 -0.46,1.56 -0.46,2.39 0,0.92 0.14,1.77 0.42,2.56 0.28,0.78 0.71,1.47 1.27,2.04 0.57,0.58 1.29,1.04 2.17,1.38 0.88,0.34 1.91,0.51 3.12,0.51 0.72,0 1.36,-0.08 1.92,-0.24 0.56,-0.16 1.11,-0.39 1.65,-0.7 0.51,-0.29 0.97,-0.65 1.37,-1.06 0.4,-0.41 0.75,-0.85 1.03,-1.31 l -0.93,-0.67 z m -13.18,2.69 c -0.24,-0.02 -0.46,-0.07 -0.65,-0.12 -0.19,-0.06 -0.35,-0.11 -0.48,-0.17 -0.24,-0.11 -0.41,-0.25 -0.5,-0.43 -0.09,-0.18 -0.13,-0.42 -0.13,-0.72 v -5.98 c 0,-1.25 -0.33,-2.24 -0.99,-3 -0.66,-0.75 -1.66,-1.13 -2.98,-1.13 -0.55,0 -1.07,0.07 -1.56,0.21 -0.49,0.14 -0.88,0.31 -1.18,0.5 -0.28,0.18 -0.58,0.41 -0.9,0.7 -0.33,0.29 -0.6,0.53 -0.83,0.73 h -0.05 v -1.77 l -0.18,-0.18 -5.82,0.32 v 0.89 c 0.27,0.02 0.52,0.07 0.74,0.13 0.22,0.06 0.41,0.15 0.56,0.24 0.21,0.15 0.38,0.35 0.51,0.6 0.13,0.24 0.2,0.49 0.2,0.74 v 7.1 c 0,0.3 -0.05,0.54 -0.15,0.73 -0.1,0.19 -0.28,0.33 -0.54,0.42 -0.15,0.05 -0.32,0.09 -0.53,0.12 -0.21,0.03 -0.41,0.05 -0.62,0.07 v 0.89 h 7.42 v -0.89 c -0.19,-0.02 -0.38,-0.07 -0.57,-0.12 -0.2,-0.06 -0.36,-0.12 -0.49,-0.19 -0.19,-0.1 -0.32,-0.24 -0.4,-0.43 -0.08,-0.19 -0.12,-0.43 -0.12,-0.71 v -6.55 c 0.1,-0.13 0.22,-0.28 0.36,-0.45 0.14,-0.17 0.33,-0.34 0.57,-0.5 0.27,-0.19 0.55,-0.33 0.83,-0.43 0.28,-0.1 0.59,-0.15 0.91,-0.15 0.6,0 1.05,0.21 1.35,0.63 0.31,0.42 0.46,1.04 0.46,1.87 v 5.71 c 0,0.33 -0.04,0.59 -0.11,0.76 -0.07,0.17 -0.2,0.3 -0.37,0.39 -0.11,0.06 -0.28,0.1 -0.5,0.12 -0.22,0.02 -0.41,0.05 -0.56,0.06 v 0.89 h 7.33 v -0.89 z m -23.72,-1.57 c -0.22,0.27 -0.48,0.5 -0.77,0.68 -0.29,0.18 -0.66,0.28 -1.11,0.28 -0.42,0 -0.78,-0.14 -1.07,-0.43 -0.29,-0.29 -0.43,-0.75 -0.43,-1.38 0,-0.48 0.09,-0.9 0.26,-1.25 0.17,-0.35 0.41,-0.65 0.71,-0.88 0.29,-0.22 0.65,-0.43 1.1,-0.63 0.45,-0.2 0.9,-0.38 1.36,-0.53 l -0.05,4.15 z m 6.1,1.32 c -0.24,0 -0.51,0 -0.81,-0.02 -0.3,-0.01 -0.52,-0.05 -0.65,-0.11 -0.23,-0.11 -0.4,-0.26 -0.51,-0.48 -0.11,-0.21 -0.16,-0.5 -0.16,-0.87 0,-0.4 0.02,-1.23 0.05,-2.49 0.04,-1.26 0.05,-2.35 0.05,-3.27 0,-0.87 -0.15,-1.58 -0.45,-2.12 -0.3,-0.54 -0.7,-0.95 -1.2,-1.24 -0.53,-0.29 -1.12,-0.49 -1.78,-0.58 -0.66,-0.09 -1.38,-0.14 -2.17,-0.14 -0.57,0 -1.19,0.07 -1.86,0.2 -0.67,0.13 -1.26,0.32 -1.77,0.57 -0.52,0.24 -0.96,0.54 -1.32,0.9 -0.36,0.36 -0.54,0.77 -0.54,1.23 0,0.53 0.17,0.96 0.53,1.29 0.35,0.33 0.87,0.49 1.55,0.49 0.48,0 0.84,-0.04 1.07,-0.13 0.23,-0.09 0.44,-0.22 0.63,-0.38 0.14,-0.12 0.24,-0.29 0.32,-0.49 0.07,-0.21 0.11,-0.38 0.11,-0.52 0,-0.31 -0.06,-0.63 -0.17,-0.96 -0.11,-0.33 -0.18,-0.58 -0.21,-0.74 0.15,-0.11 0.34,-0.21 0.58,-0.31 0.24,-0.1 0.54,-0.15 0.9,-0.15 0.4,0 0.72,0.09 0.96,0.27 0.24,0.18 0.42,0.4 0.54,0.66 0.11,0.23 0.17,0.51 0.21,0.84 0.03,0.33 0.05,0.6 0.05,0.8 v 1.17 c -0.47,0.23 -1.22,0.49 -2.25,0.78 -1.03,0.29 -1.91,0.57 -2.64,0.84 -0.38,0.15 -0.74,0.3 -1.06,0.48 -0.32,0.18 -0.61,0.39 -0.85,0.65 -0.27,0.29 -0.48,0.61 -0.62,0.98 -0.14,0.37 -0.22,0.82 -0.22,1.35 0,0.92 0.33,1.66 1,2.22 0.67,0.56 1.48,0.84 2.42,0.84 0.64,0 1.13,-0.04 1.48,-0.13 0.36,-0.09 0.72,-0.22 1.11,-0.4 0.29,-0.14 0.57,-0.31 0.82,-0.5 0.26,-0.19 0.52,-0.43 0.8,-0.71 h 0.07 c 0.17,0.55 0.49,0.98 0.96,1.28 0.47,0.3 1.2,0.45 2.2,0.45 0.54,0 1.06,-0.06 1.55,-0.19 0.49,-0.13 0.91,-0.27 1.27,-0.43 v -0.89 z m -14.66,-16.17 h -9.25 v 0.95 c 0.23,0.03 0.52,0.09 0.86,0.16 0.35,0.07 0.64,0.16 0.89,0.27 0.34,0.15 0.56,0.32 0.65,0.51 0.09,0.19 0.14,0.44 0.14,0.73 v 9.78 c 0,1.42 -0.28,2.47 -0.84,3.17 -0.56,0.7 -1.33,1.05 -2.31,1.05 -0.25,0 -0.5,-0.06 -0.75,-0.17 -0.24,-0.11 -0.4,-0.25 -0.48,-0.42 v -0.16 c 0.46,-0.37 0.88,-0.78 1.24,-1.23 0.36,-0.45 0.54,-0.93 0.54,-1.45 0,-0.61 -0.21,-1.12 -0.63,-1.54 -0.42,-0.42 -0.98,-0.62 -1.69,-0.62 -0.75,0 -1.34,0.25 -1.76,0.74 -0.43,0.5 -0.64,1.12 -0.64,1.88 0,1.28 0.47,2.28 1.4,3.01 0.93,0.73 2.16,1.1 3.68,1.1 0.88,0 1.7,-0.12 2.48,-0.37 0.77,-0.25 1.47,-0.62 2.1,-1.1 0.62,-0.5 1.11,-1.11 1.46,-1.84 0.35,-0.73 0.53,-1.54 0.53,-2.42 v -9.55 c 0,-0.29 0.05,-0.55 0.14,-0.78 0.09,-0.23 0.31,-0.39 0.64,-0.48 0.28,-0.07 0.54,-0.13 0.77,-0.17 0.23,-0.04 0.5,-0.08 0.83,-0.12 v -0.95 z m -22.6,16.63 c 1.04,-0.73 1.57,-1.76 1.57,-3.1 0,-1 -0.34,-1.82 -1.01,-2.47 -0.67,-0.65 -1.74,-1.16 -3.19,-1.53 -0.94,-0.24 -1.67,-0.51 -2.2,-0.78 -0.52,-0.28 -0.79,-0.72 -0.79,-1.34 0,-0.46 0.18,-0.83 0.54,-1.09 0.36,-0.26 0.85,-0.39 1.48,-0.39 0.8,0 1.54,0.31 2.23,0.92 0.69,0.62 1.18,1.35 1.46,2.19 h 0.85 l -0.2,-4.16 h -0.93 l -0.26,0.72 c -0.42,-0.18 -0.95,-0.34 -1.57,-0.49 -0.62,-0.15 -1.3,-0.23 -2.04,-0.23 -1.56,0 -2.83,0.35 -3.79,1.06 -0.96,0.71 -1.45,1.63 -1.45,2.78 0,0.62 0.11,1.15 0.33,1.6 0.22,0.45 0.51,0.83 0.88,1.15 0.42,0.36 0.83,0.62 1.23,0.79 0.39,0.17 0.87,0.33 1.42,0.49 0.55,0.16 1.02,0.3 1.4,0.42 0.38,0.11 0.73,0.25 1.04,0.41 0.28,0.15 0.51,0.34 0.67,0.55 0.16,0.21 0.24,0.48 0.24,0.81 0,0.6 -0.18,1.05 -0.54,1.34 -0.36,0.29 -0.91,0.43 -1.65,0.43 -0.56,0 -1.09,-0.13 -1.58,-0.38 -0.49,-0.25 -0.93,-0.56 -1.31,-0.93 -0.37,-0.37 -0.69,-0.78 -0.98,-1.24 -0.28,-0.46 -0.49,-0.87 -0.61,-1.24 h -0.89 l 0.16,4.55 h 0.95 l 0.37,-0.83 c 0.42,0.26 1,0.51 1.75,0.74 0.75,0.23 1.52,0.35 2.31,0.35 1.68,0 3.05,-0.37 4.09,-1.1 m -17.25,-1.78 c -0.22,0.27 -0.47,0.5 -0.76,0.68 -0.29,0.18 -0.66,0.28 -1.11,0.28 -0.42,0 -0.78,-0.14 -1.07,-0.43 -0.29,-0.29 -0.43,-0.75 -0.43,-1.38 0,-0.48 0.09,-0.9 0.26,-1.25 0.17,-0.35 0.41,-0.65 0.71,-0.88 0.29,-0.22 0.65,-0.43 1.1,-0.63 0.45,-0.2 0.9,-0.38 1.36,-0.53 l -0.05,4.15 z m 6.11,1.32 c -0.24,0 -0.52,0 -0.81,-0.02 -0.3,-0.01 -0.51,-0.05 -0.65,-0.11 -0.23,-0.11 -0.4,-0.26 -0.51,-0.48 -0.11,-0.21 -0.17,-0.5 -0.17,-0.87 0,-0.4 0.02,-1.23 0.06,-2.49 0.04,-1.26 0.05,-2.35 0.05,-3.27 0,-0.87 -0.15,-1.58 -0.45,-2.12 -0.3,-0.54 -0.7,-0.95 -1.2,-1.24 -0.53,-0.29 -1.12,-0.49 -1.78,-0.58 -0.66,-0.09 -1.38,-0.14 -2.17,-0.14 -0.57,0 -1.19,0.07 -1.85,0.2 -0.67,0.13 -1.26,0.32 -1.77,0.57 -0.52,0.24 -0.96,0.54 -1.32,0.9 -0.36,0.36 -0.54,0.77 -0.54,1.23 0,0.53 0.18,0.96 0.53,1.29 0.35,0.33 0.87,0.49 1.55,0.49 0.48,0 0.84,-0.04 1.07,-0.13 0.23,-0.09 0.44,-0.22 0.63,-0.38 0.14,-0.12 0.24,-0.29 0.32,-0.49 0.07,-0.21 0.11,-0.38 0.11,-0.52 0,-0.31 -0.06,-0.63 -0.17,-0.96 -0.11,-0.33 -0.18,-0.58 -0.21,-0.74 0.15,-0.11 0.34,-0.21 0.58,-0.31 0.24,-0.1 0.54,-0.15 0.9,-0.15 0.4,0 0.72,0.09 0.96,0.27 0.24,0.18 0.42,0.4 0.54,0.66 0.11,0.23 0.18,0.51 0.21,0.84 0.03,0.33 0.05,0.6 0.05,0.8 v 1.17 c -0.47,0.23 -1.22,0.49 -2.25,0.78 -1.03,0.29 -1.91,0.57 -2.64,0.84 -0.38,0.15 -0.74,0.3 -1.06,0.48 -0.32,0.17 -0.6,0.39 -0.85,0.65 -0.27,0.29 -0.48,0.61 -0.62,0.98 -0.15,0.37 -0.22,0.82 -0.22,1.35 0,0.92 0.33,1.66 1,2.22 0.67,0.56 1.47,0.84 2.42,0.84 0.64,0 1.13,-0.04 1.49,-0.13 0.35,-0.09 0.72,-0.22 1.11,-0.4 0.29,-0.14 0.57,-0.31 0.83,-0.5 0.26,-0.19 0.52,-0.43 0.8,-0.71 h 0.07 c 0.17,0.55 0.49,0.98 0.96,1.28 0.47,0.3 1.21,0.45 2.2,0.45 0.54,0 1.06,-0.06 1.55,-0.19 0.49,-0.13 0.91,-0.27 1.27,-0.43 v -0.89 z m -15.3,0.25 c -0.25,-0.02 -0.47,-0.07 -0.67,-0.12 -0.19,-0.06 -0.35,-0.11 -0.48,-0.17 -0.24,-0.1 -0.4,-0.24 -0.49,-0.42 -0.09,-0.18 -0.13,-0.42 -0.13,-0.73 v -5.93 c 0,-1.33 -0.33,-2.36 -0.99,-3.09 -0.66,-0.73 -1.61,-1.09 -2.84,-1.09 -0.56,0 -1.09,0.07 -1.58,0.21 -0.49,0.14 -0.9,0.31 -1.21,0.51 -0.29,0.18 -0.6,0.42 -0.94,0.71 -0.34,0.3 -0.63,0.56 -0.87,0.78 h -0.11 c -0.26,-0.67 -0.7,-1.2 -1.32,-1.6 -0.62,-0.4 -1.4,-0.6 -2.32,-0.6 -0.56,0 -1.08,0.07 -1.55,0.2 -0.47,0.13 -0.86,0.29 -1.16,0.49 -0.28,0.17 -0.57,0.4 -0.88,0.68 -0.31,0.28 -0.58,0.52 -0.81,0.73 h -0.05 v -1.72 l -0.18,-0.18 -5.82,0.32 v 0.89 c 0.27,0.02 0.51,0.07 0.74,0.13 0.22,0.06 0.41,0.15 0.55,0.24 0.2,0.14 0.36,0.33 0.5,0.58 0.14,0.25 0.21,0.5 0.21,0.76 v 7.1 c 0,0.3 -0.05,0.54 -0.15,0.73 -0.1,0.18 -0.28,0.32 -0.54,0.42 -0.15,0.06 -0.32,0.1 -0.53,0.12 -0.2,0.02 -0.41,0.05 -0.62,0.06 v 0.89 h 7.31 v -0.89 c -0.19,-0.02 -0.36,-0.07 -0.53,-0.12 -0.17,-0.06 -0.32,-0.12 -0.45,-0.19 -0.19,-0.11 -0.32,-0.25 -0.39,-0.44 -0.07,-0.19 -0.11,-0.42 -0.11,-0.71 v -6.55 c 0.09,-0.12 0.2,-0.27 0.33,-0.44 0.13,-0.17 0.31,-0.34 0.55,-0.51 0.23,-0.16 0.48,-0.3 0.75,-0.41 0.27,-0.11 0.58,-0.16 0.94,-0.16 0.56,0 0.98,0.21 1.28,0.63 0.3,0.42 0.45,1.05 0.45,1.89 v 5.7 c 0,0.33 -0.03,0.59 -0.08,0.76 -0.05,0.17 -0.16,0.3 -0.33,0.39 -0.11,0.06 -0.27,0.1 -0.48,0.12 -0.22,0.02 -0.4,0.05 -0.56,0.06 v 0.89 h 6.93 v -0.89 c -0.18,-0.02 -0.36,-0.07 -0.53,-0.12 -0.16,-0.06 -0.31,-0.12 -0.44,-0.19 -0.19,-0.11 -0.31,-0.25 -0.38,-0.43 -0.07,-0.18 -0.1,-0.42 -0.1,-0.71 v -6.55 c 0.09,-0.12 0.2,-0.27 0.33,-0.44 0.13,-0.17 0.31,-0.34 0.55,-0.51 0.23,-0.16 0.48,-0.3 0.75,-0.41 0.27,-0.11 0.58,-0.16 0.94,-0.16 0.55,0 0.98,0.21 1.28,0.63 0.3,0.42 0.45,1.05 0.45,1.89 v 5.7 c 0,0.3 -0.03,0.55 -0.07,0.74 -0.05,0.19 -0.16,0.33 -0.34,0.41 -0.13,0.06 -0.29,0.11 -0.48,0.12 -0.19,0.02 -0.38,0.04 -0.56,0.06 v 0.89 h 7.25 v -0.89 z m -31.51,-0.11 c -0.35,0.27 -0.77,0.41 -1.26,0.41 -0.54,0 -0.98,-0.15 -1.33,-0.44 -0.35,-0.29 -0.62,-0.69 -0.8,-1.2 -0.22,-0.59 -0.36,-1.17 -0.42,-1.75 -0.06,-0.58 -0.09,-1.32 -0.09,-2.2 0,-0.68 0.03,-1.32 0.1,-1.95 0.07,-0.62 0.18,-1.16 0.35,-1.63 0.19,-0.5 0.45,-0.91 0.8,-1.23 0.35,-0.32 0.81,-0.48 1.38,-0.48 0.53,0 0.97,0.15 1.31,0.44 0.34,0.29 0.62,0.7 0.81,1.21 0.16,0.42 0.29,1 0.37,1.73 0.08,0.73 0.12,1.38 0.12,1.95 0,0.86 -0.04,1.62 -0.13,2.27 -0.08,0.65 -0.22,1.2 -0.4,1.66 -0.2,0.53 -0.48,0.93 -0.83,1.2 m 1.74,-10.98 c -0.87,-0.31 -1.87,-0.47 -3.01,-0.47 -1.14,0 -2.08,0.16 -2.96,0.47 -0.88,0.31 -1.62,0.75 -2.23,1.32 -0.63,0.59 -1.1,1.27 -1.41,2.03 -0.31,0.76 -0.47,1.63 -0.47,2.61 0,0.98 0.18,1.89 0.54,2.69 0.36,0.8 0.85,1.47 1.46,2.02 0.64,0.57 1.38,1 2.21,1.28 0.83,0.29 1.75,0.43 2.74,0.43 1.15,0 2.17,-0.16 3.06,-0.49 0.89,-0.32 1.66,-0.79 2.3,-1.4 0.6,-0.57 1.06,-1.25 1.37,-2.06 0.31,-0.8 0.47,-1.65 0.47,-2.56 0,-0.91 -0.16,-1.76 -0.48,-2.54 -0.32,-0.78 -0.78,-1.45 -1.38,-2.01 -0.62,-0.57 -1.36,-1.01 -2.23,-1.32 m -11.21,11.1 c -0.26,-0.03 -0.48,-0.07 -0.66,-0.12 -0.18,-0.05 -0.34,-0.11 -0.49,-0.17 -0.24,-0.11 -0.41,-0.25 -0.5,-0.43 -0.09,-0.18 -0.13,-0.42 -0.13,-0.72 v -5.98 c 0,-1.24 -0.33,-2.23 -0.99,-2.99 -0.66,-0.76 -1.65,-1.13 -2.97,-1.13 -0.56,0 -1.08,0.07 -1.57,0.21 -0.48,0.14 -0.88,0.31 -1.18,0.5 -0.36,0.23 -0.66,0.45 -0.91,0.68 -0.25,0.22 -0.53,0.47 -0.83,0.75 h -0.05 v -8.39 l -0.18,-0.2 -6.08,0.32 v 0.89 c 0.24,0.02 0.52,0.05 0.83,0.12 0.31,0.07 0.54,0.14 0.71,0.25 0.22,0.15 0.39,0.37 0.51,0.66 0.12,0.29 0.18,0.57 0.18,0.83 v 13.6 c 0,0.3 -0.05,0.54 -0.14,0.73 -0.09,0.18 -0.27,0.32 -0.54,0.42 -0.15,0.06 -0.33,0.1 -0.53,0.12 -0.2,0.02 -0.41,0.05 -0.62,0.06 v 0.89 h 7.44 v -0.89 c -0.19,-0.02 -0.38,-0.07 -0.58,-0.12 -0.2,-0.06 -0.36,-0.12 -0.48,-0.19 -0.2,-0.11 -0.34,-0.26 -0.41,-0.43 -0.07,-0.18 -0.11,-0.41 -0.11,-0.71 v -6.55 c 0.1,-0.13 0.22,-0.28 0.36,-0.45 0.14,-0.17 0.33,-0.34 0.57,-0.5 0.27,-0.19 0.54,-0.33 0.82,-0.43 0.28,-0.1 0.58,-0.15 0.91,-0.15 0.58,0 1.02,0.21 1.34,0.62 0.31,0.41 0.47,1.04 0.47,1.88 v 5.71 c 0,0.33 -0.03,0.59 -0.1,0.76 -0.07,0.17 -0.19,0.3 -0.36,0.39 -0.11,0.06 -0.27,0.1 -0.49,0.12 -0.22,0.02 -0.41,0.05 -0.57,0.06 v 0.89 h 7.33 v -0.89 z m -17.11,-16.42 h -16.78 v 4.95 h 0.95 c 0.25,-0.74 0.66,-1.53 1.21,-2.38 0.56,-0.85 1.07,-1.3 1.54,-1.37 0.26,-0.03 0.58,-0.06 0.96,-0.09 0.38,-0.02 0.71,-0.04 0.99,-0.04 h 0.57 v 13.7 c 0,0.3 -0.05,0.56 -0.16,0.78 -0.11,0.22 -0.32,0.4 -0.63,0.53 -0.15,0.07 -0.45,0.12 -0.87,0.16 -0.43,0.04 -0.76,0.08 -0.99,0.1 v 0.95 h 9.65 v -0.95 c -0.28,-0.03 -0.61,-0.09 -1.01,-0.16 -0.4,-0.08 -0.69,-0.15 -0.87,-0.23 -0.31,-0.13 -0.52,-0.31 -0.62,-0.53 -0.11,-0.22 -0.16,-0.48 -0.16,-0.78 v -13.58 h 0.57 c 0.28,0 0.6,0.01 0.99,0.04 0.38,0.03 0.7,0.05 0.96,0.09 0.47,0.07 0.99,0.52 1.54,1.37 0.56,0.85 0.96,1.64 1.21,2.38 h 0.95 v -4.95 z m -23.39,16.42 c -0.25,-0.02 -0.47,-0.07 -0.66,-0.12 -0.19,-0.06 -0.35,-0.11 -0.48,-0.17 -0.24,-0.1 -0.4,-0.24 -0.49,-0.42 -0.09,-0.18 -0.13,-0.42 -0.13,-0.73 v -5.93 c 0,-1.33 -0.33,-2.36 -0.99,-3.09 -0.66,-0.72 -1.61,-1.09 -2.84,-1.09 -0.56,0 -1.09,0.07 -1.58,0.21 -0.49,0.14 -0.9,0.31 -1.21,0.51 -0.29,0.18 -0.6,0.42 -0.94,0.71 -0.34,0.3 -0.63,0.56 -0.87,0.78 h -0.11 c -0.26,-0.67 -0.7,-1.2 -1.32,-1.6 -0.62,-0.4 -1.4,-0.6 -2.32,-0.6 -0.56,0 -1.08,0.07 -1.55,0.2 -0.47,0.13 -0.86,0.29 -1.16,0.49 -0.28,0.17 -0.57,0.4 -0.88,0.68 -0.31,0.28 -0.58,0.52 -0.81,0.73 h -0.05 v -1.72 l -0.18,-0.18 -5.82,0.32 v 0.89 c 0.27,0.02 0.51,0.07 0.74,0.13 0.22,0.06 0.41,0.15 0.56,0.24 0.2,0.14 0.36,0.33 0.5,0.58 0.14,0.25 0.21,0.5 0.21,0.76 v 7.1 c 0,0.3 -0.05,0.54 -0.15,0.73 -0.1,0.18 -0.28,0.32 -0.54,0.42 -0.15,0.06 -0.32,0.1 -0.52,0.12 -0.2,0.02 -0.41,0.05 -0.62,0.06 v 0.89 h 7.31 v -0.89 c -0.19,-0.02 -0.36,-0.07 -0.53,-0.12 -0.17,-0.06 -0.31,-0.12 -0.44,-0.19 -0.19,-0.11 -0.32,-0.25 -0.39,-0.44 -0.07,-0.19 -0.11,-0.42 -0.11,-0.71 v -6.55 c 0.09,-0.12 0.2,-0.27 0.33,-0.44 0.13,-0.17 0.31,-0.34 0.55,-0.51 0.23,-0.16 0.48,-0.3 0.75,-0.41 0.27,-0.11 0.59,-0.16 0.94,-0.16 0.55,0 0.98,0.21 1.28,0.63 0.3,0.42 0.45,1.05 0.45,1.89 v 5.7 c 0,0.33 -0.03,0.59 -0.08,0.76 -0.05,0.17 -0.16,0.3 -0.33,0.39 -0.1,0.06 -0.27,0.1 -0.48,0.12 -0.22,0.02 -0.4,0.05 -0.56,0.06 v 0.89 h 6.93 v -0.89 c -0.19,-0.02 -0.36,-0.07 -0.53,-0.12 -0.16,-0.06 -0.31,-0.12 -0.44,-0.19 -0.19,-0.11 -0.31,-0.25 -0.38,-0.43 -0.07,-0.18 -0.1,-0.42 -0.1,-0.71 v -6.55 c 0.09,-0.12 0.2,-0.27 0.33,-0.44 0.13,-0.17 0.31,-0.34 0.55,-0.51 0.23,-0.16 0.48,-0.3 0.75,-0.41 0.27,-0.11 0.58,-0.16 0.94,-0.16 0.56,0 0.98,0.21 1.28,0.63 0.3,0.42 0.45,1.05 0.45,1.89 v 5.7 c 0,0.3 -0.02,0.55 -0.07,0.74 -0.05,0.19 -0.16,0.33 -0.34,0.41 -0.13,0.06 -0.29,0.11 -0.48,0.12 -0.19,0.02 -0.38,0.04 -0.56,0.06 v 0.89 h 7.25 v -0.89 z m -31.86,-1.57 c -0.22,0.27 -0.48,0.5 -0.77,0.68 -0.29,0.18 -0.66,0.28 -1.11,0.28 -0.43,0 -0.78,-0.14 -1.07,-0.43 -0.29,-0.29 -0.43,-0.75 -0.43,-1.38 0,-0.48 0.09,-0.9 0.26,-1.25 0.17,-0.35 0.41,-0.65 0.71,-0.88 0.29,-0.22 0.65,-0.43 1.1,-0.63 0.45,-0.2 0.9,-0.38 1.36,-0.53 l -0.05,4.15 z m 6.1,1.32 c -0.24,0 -0.51,0 -0.81,-0.02 -0.3,-0.01 -0.51,-0.05 -0.65,-0.11 -0.23,-0.11 -0.4,-0.26 -0.51,-0.48 -0.11,-0.21 -0.16,-0.5 -0.16,-0.87 0,-0.4 0.02,-1.23 0.05,-2.49 0.04,-1.26 0.06,-2.35 0.06,-3.27 0,-0.87 -0.15,-1.58 -0.45,-2.12 -0.3,-0.54 -0.7,-0.95 -1.2,-1.24 -0.53,-0.29 -1.12,-0.49 -1.78,-0.58 -0.66,-0.09 -1.38,-0.14 -2.17,-0.14 -0.57,0 -1.19,0.07 -1.85,0.2 -0.67,0.13 -1.26,0.32 -1.77,0.57 -0.52,0.24 -0.96,0.54 -1.32,0.9 -0.36,0.36 -0.54,0.77 -0.54,1.23 0,0.53 0.18,0.96 0.53,1.29 0.35,0.33 0.87,0.49 1.55,0.49 0.48,0 0.84,-0.04 1.07,-0.13 0.23,-0.09 0.44,-0.22 0.63,-0.38 0.14,-0.12 0.24,-0.29 0.32,-0.49 0.07,-0.21 0.11,-0.38 0.11,-0.52 0,-0.31 -0.06,-0.63 -0.17,-0.96 -0.11,-0.33 -0.18,-0.58 -0.21,-0.74 0.15,-0.11 0.34,-0.21 0.58,-0.31 0.24,-0.1 0.54,-0.15 0.9,-0.15 0.4,0 0.72,0.09 0.96,0.27 0.24,0.18 0.42,0.4 0.54,0.66 0.11,0.23 0.18,0.51 0.21,0.84 0.03,0.33 0.05,0.6 0.05,0.8 v 1.17 c -0.47,0.23 -1.22,0.49 -2.25,0.78 -1.03,0.29 -1.91,0.57 -2.64,0.84 -0.38,0.15 -0.74,0.3 -1.06,0.48 -0.32,0.18 -0.6,0.39 -0.85,0.65 -0.27,0.29 -0.48,0.61 -0.62,0.98 -0.15,0.37 -0.22,0.82 -0.22,1.35 0,0.92 0.33,1.66 1,2.22 0.67,0.56 1.47,0.84 2.42,0.84 0.64,0 1.13,-0.04 1.49,-0.13 0.35,-0.09 0.72,-0.22 1.11,-0.4 0.29,-0.14 0.57,-0.31 0.83,-0.5 0.26,-0.19 0.52,-0.43 0.8,-0.71 h 0.07 c 0.17,0.55 0.49,0.98 0.96,1.28 0.47,0.3 1.21,0.45 2.2,0.45 0.54,0 1.06,-0.06 1.55,-0.19 0.49,-0.13 0.91,-0.27 1.27,-0.43 v -0.89 z m -22.29,-0.52 c -0.32,0.19 -0.73,0.29 -1.23,0.29 -0.52,0 -0.96,-0.12 -1.33,-0.37 -0.37,-0.24 -0.67,-0.58 -0.91,-1.01 -0.24,-0.43 -0.4,-0.91 -0.49,-1.43 -0.09,-0.52 -0.14,-1.12 -0.14,-1.78 0,-1.68 0.26,-2.97 0.78,-3.89 0.52,-0.92 1.18,-1.38 2,-1.38 0.34,0 0.65,0.07 0.92,0.2 0.27,0.13 0.49,0.28 0.65,0.45 0.18,0.2 0.32,0.42 0.42,0.65 0.1,0.23 0.18,0.43 0.24,0.62 v 6.89 c -0.28,0.32 -0.58,0.57 -0.9,0.76 m 7.12,0.52 c -0.21,0 -0.48,-0.03 -0.81,-0.07 -0.33,-0.04 -0.58,-0.11 -0.75,-0.2 -0.23,-0.12 -0.39,-0.29 -0.49,-0.5 -0.1,-0.21 -0.15,-0.47 -0.15,-0.78 v -16 l -0.18,-0.2 -6.6,0.32 v 0.89 c 0.38,0.03 0.76,0.09 1.14,0.16 0.38,0.08 0.69,0.21 0.95,0.38 0.2,0.15 0.37,0.35 0.49,0.62 0.12,0.26 0.18,0.55 0.18,0.85 v 3.99 c -0.35,-0.2 -0.82,-0.38 -1.4,-0.53 -0.59,-0.15 -1.21,-0.23 -1.88,-0.23 -1.69,0 -3.13,0.61 -4.32,1.84 -1.19,1.23 -1.78,2.7 -1.78,4.42 0,1.94 0.53,3.51 1.6,4.73 1.06,1.22 2.42,1.83 4.06,1.83 0.69,0 1.37,-0.16 2.05,-0.48 0.68,-0.32 1.22,-0.7 1.61,-1.13 l 0.09,0.02 v 1.12 l 0.18,0.17 6.02,-0.35 v -0.89 z m -29.95,-5.86 2.47,-6.26 2.51,6.26 z m 14.08,6.05 c -0.24,-0.02 -0.52,-0.06 -0.82,-0.12 -0.3,-0.07 -0.57,-0.16 -0.79,-0.29 -0.3,-0.18 -0.53,-0.37 -0.7,-0.57 -0.16,-0.2 -0.3,-0.42 -0.4,-0.67 -0.63,-1.5 -1.4,-3.38 -2.31,-5.66 -0.91,-2.28 -2.15,-5.38 -3.75,-9.3 h -2.44 c -1.15,2.77 -2.19,5.3 -3.14,7.59 -0.95,2.29 -1.89,4.58 -2.84,6.87 -0.15,0.39 -0.35,0.73 -0.58,1.01 -0.23,0.28 -0.51,0.53 -0.85,0.72 -0.2,0.12 -0.46,0.22 -0.8,0.29 -0.34,0.07 -0.64,0.11 -0.91,0.13 v 0.95 h 7.1 v -0.95 c -0.92,-0.08 -1.57,-0.21 -1.97,-0.4 -0.39,-0.18 -0.59,-0.4 -0.59,-0.67 0,-0.08 0.01,-0.22 0.04,-0.43 0.03,-0.2 0.12,-0.53 0.27,-0.99 0.12,-0.35 0.26,-0.75 0.43,-1.2 0.17,-0.45 0.32,-0.84 0.46,-1.17 h 5.98 l 1.48,3.59 c 0.06,0.14 0.09,0.25 0.1,0.33 0.01,0.08 0.02,0.15 0.02,0.22 0,0.19 -0.3,0.34 -0.89,0.47 -0.59,0.13 -1.11,0.21 -1.55,0.24 v 0.95 h 9.43 v -0.95 z"
         id="path5" />
    </g>
  </g>
</svg>
