<?xml version="1.0" encoding="UTF-8"?>
<svg id="Layer_1" xmlns="http://www.w3.org/2000/svg" version="1.1" xmlns:xlink="http://www.w3.org/1999/xlink" viewBox="0 0 226.8 226.8">
  <!-- Generator: Adobe Illustrator 30.6.0, SVG Export Plug-In . SVG Version: 2.1.4 Build 109)  -->
  <defs>
    <style>
      .st0 {
        fill: #fff;
      }

      .st1 {
        fill: none;
      }

      .st2 {
        fill: #2a522f;
      }

      .st3 {
        clip-path: url(#clippath);
      }
    </style>
    <clipPath id="clippath">
      <rect class="st1" width="226.8" height="226.8"/>
    </clipPath>
  </defs>
  <g class="st3">
    <path class="st2" d="M113.4,223.38c60.74,0,109.98-49.24,109.98-109.99S174.14,3.41,113.4,3.41,3.42,52.66,3.42,113.4s49.24,109.99,109.99,109.99"/>
    <path class="st0" d="M193.91,161.42c1.7.96,3.67.58,4.64-1.15.97-1.73.26-3.6-1.43-4.55-1.71-.96-3.66-.59-4.63,1.14-.97,1.73-.29,3.6,1.42,4.57M168.69,188.79c1.21,1.53,3.18,1.92,4.73.69,1.55-1.23,1.61-3.23.4-4.75-1.22-1.54-3.16-1.94-4.72-.71-1.56,1.23-1.64,3.22-.42,4.77M128.7,205.61c.41,1.9,2,3.13,3.94,2.71,1.94-.42,2.87-2.18,2.46-4.09-.41-1.92-1.98-3.13-3.92-2.72-1.94.42-2.89,2.17-2.48,4.09M48.39,176.78l-1.77,1.87,1.78,1.69c.6.57,1.4.7,1.98.09.57-.6.4-1.39-.21-1.96l-1.78-1.69ZM34.99,171.74c1.22,1.56,3.22,1.63,4.75.43,1.55-1.21,1.95-3.15.73-4.71-1.22-1.56-3.21-1.65-4.76-.44-1.54,1.2-1.94,3.16-.72,4.73M33.22,156.7l-1.2-2.14-2.25,1.26,1.2,2.14c.41.72,1.14,1.07,1.85.68.72-.41.8-1.22.4-1.94M34.37,161.39c-1.89,1.06-4.2.67-5.53-1.69l-1.43-2.54-3.52,1.98-1.52-2.7,10.48-5.9,2.95,5.25c1.33,2.36.47,4.54-1.43,5.61M33.77,164.52c2.88-2.25,6.6-1.66,8.86,1.24,2.26,2.9,1.93,6.63-.95,8.89-2.88,2.25-6.59,1.67-8.85-1.23-2.26-2.9-1.94-6.65.94-8.9M39.73,181.41l8.27-8.73,4.37,4.14c1.94,1.84,1.82,4.16.28,5.78-1.44,1.52-3.12,1.46-4.22.97l-1.26,4.89-2.58-2.44,1.31-4.32-1.15-1.09-2.78,2.93-2.25-2.13ZM52.41,192.58l5.43-7.58-2.74-1.96,1.57-2.2,7.99,5.72-1.57,2.2-2.73-1.95-5.43,7.58-2.52-1.81ZM69.01,196.23c1.5-3.4,5.08-4.56,8.47-3.06,2.66,1.17,3.43,3.31,3.51,5.05l-2.96.09c.02-1.03-.6-2.18-1.65-2.64-1.8-.79-3.67.02-4.47,1.83-.79,1.8-.14,3.74,1.66,4.54,1.06.47,2.32.15,3.07-.56l1.93,2.23c-1.33,1.09-3.45,2.01-6.1.83-3.38-1.49-4.94-4.94-3.44-8.32M80.91,207.69l3.32-11.56,2.98.86-2.57,8.96,4.64,1.33-.75,2.6-7.62-2.19ZM91.83,210.61l2.23-11.82,3.05.57-2.23,11.82-3.05-.57ZM99.31,212.08l.88-11.99,3.18.23,4.38,6.95.48-6.6,3.11.23-.88,11.99-2.99-.22-4.57-7.31-.51,6.94-3.09-.23ZM113.3,200.96l9.81-.65.18,2.7-3.35.22.62,9.3-3.09.21-.62-9.3-3.36.22-.18-2.7ZM130.6,198.84c3.6-.77,6.81,1.16,7.58,4.74.77,3.58-1.38,6.66-4.97,7.43-3.6.77-6.83-1.15-7.6-4.73-.77-3.58,1.39-6.66,4.99-7.43M139.13,197.12l2.97-1.16,6.94,4.39-2.41-6.16,2.91-1.14,4.38,11.2-2.79,1.09-7.27-4.63,2.53,6.48-2.89,1.13-4.38-11.2ZM157.76,198.78c.86-.46,1.98-.19,2.6.97.69,1.31.6,2.82-.1,4.2l-1.46-.29c.37-.52.68-1.57.55-2.23-.06.05-.2.17-.34.24-.68.36-1.52.14-1.94-.64-.43-.81-.11-1.82.69-2.24M167.41,181.87c2.89-2.28,6.62-1.97,8.89.9,2.27,2.87,1.71,6.58-1.18,8.86-2.88,2.28-6.64,1.98-8.91-.89s-1.69-6.59,1.19-8.87M183.12,184.63l-8.88-8.12,2.09-2.29,3.31,3.03,3.37-3.69-3.31-3.03,2.09-2.29,8.88,8.12-2.09,2.29-3.57-3.26-3.37,3.69,3.57,3.26-2.09,2.29ZM193.45,172.71l-9.78-7,1.8-2.52,9.78,7-1.8,2.52ZM192.36,164.17c-3.19-1.8-4.07-5.46-2.26-8.66,1.8-3.2,5.38-4.34,8.57-2.54,3.19,1.8,4.07,5.44,2.27,8.65-1.8,3.21-5.39,4.35-8.58,2.56M37.25,143.9H12.64c13.08,43.27,53.22,74.79,100.76,74.79s87.68-31.52,100.76-74.79h-24.61c-12.12,30.22-41.6,51.6-76.15,51.6s-64.04-21.38-76.15-51.6M91.05,151.18c-.6-1.78-2.22-2.76-4.02-2.16-1.8.6-2.51,2.37-1.91,4.15.59,1.76,2.24,2.76,4.03,2.15,1.8-.6,2.49-2.38,1.9-4.15M104.75,148.22c-.28-1.75-1.56-2.95-3.63-2.61l-1.85.3,1,6.25,1.84-.29c1.99-.32,2.92-1.95,2.65-3.64M116.51,141.65c2.57.05,4.09,1.44,4.86,2.88l-2.51,1.25c-.42-.77-1.28-1.49-2.4-1.51-1.88-.04-3.23,1.37-3.27,3.27-.04,1.88,1.26,3.35,3.14,3.39,1.28.02,2.17-.68,2.58-1.56l-3.02-.06.05-2.6,6.27.12c-.08,4.34-2.47,6.78-6.21,6.71-3.15-.06-5.9-2.4-5.83-6.06.07-3.65,2.9-5.89,6.33-5.83M102.53,154.41l-4.78.77-1.82-11.35,4.77-.76c3.57-.57,6.49,1.16,7.05,4.68.56,3.52-1.66,6.1-5.22,6.67M89.99,157.81c-3.33,1.12-6.61-.36-7.73-3.68-1.11-3.32.61-6.48,3.94-7.6,3.33-1.12,6.6.37,7.71,3.68,1.11,3.32-.59,6.47-3.92,7.59M77.88,159.88l4.13-2.08,1.16,2.31-6.77,3.41-5.17-10.27,2.65-1.33,4.01,7.96ZM123.82,153.82l1.59-11.39,2.94.41-1.59,11.39-2.94-.41ZM129.4,154.49l3.2-11.04,2.93.85,2.71,7.37,1.76-6.08,2.86.83-3.2,11.04-2.75-.8-2.82-7.74-1.85,6.39-2.85-.83ZM144.2,152.98c1.62-3.27,5.14-4.09,8.21-2.57,2.3,1.14,3.09,3.05,3.16,4.68l-2.8.06c-.05-.87-.52-1.89-1.53-2.39-1.68-.83-3.51-.14-4.35,1.56-.83,1.68-.29,3.57,1.4,4.4,1.14.57,2.25.31,3-.31l-2.7-1.34,1.15-2.33,5.62,2.78c-1.93,3.89-5.13,5.08-8.48,3.42-2.83-1.4-4.31-4.69-2.69-7.97M60.43,154.82c4.73,4.38,9.24,8.95,13.51,13.7,24-14.96,54.53-15.22,78.9-.45,4.28-4.76,8.79-9.35,13.53-13.74-32.19-21.63-74.19-21.34-105.94.49M74.3,170.84l-11.65-12.08-7.11,6.84,11.38,2.49,6.58,9.69,7.46-11.11-6.66,4.18ZM117.33,175.86l-1.8,1.97.3,2.65-2.43-1.1-2.43,1.1.3-2.65-1.8-1.97,2.61-.53,1.05-1.86.26-.46,1.32,2.32,2.61.53ZM117.4,190.05l-.02-1.79.77-1.8.86.14.14.89.54-.36.14-.8.15-1.47,1.29-1.48.77.12.82-.29.69-.45,1.55-1.96.04-.83.46-1.78.47-2.14.14-1.87-.34-1,.81-.47-.88-10.76-3,1.33-3.4,2.49-4.31,1.37-3.04-.23-3.82-1.46h0s-2.27.18-2.27.18l-2.75.12-3.09.18.24,7.29.24,7.84.16,5.58,2.15.11,1.14.73,1.75,1.74,1.36.51,1,.6,1.49-.3,1.13.4,1.33-.51,1.19-.21.57,1.1,1.23.7,1.55-.3.75-1.17ZM171.26,164.89l-7.11-6.84-11.64,12.09-6.67-4.17,7.47,11.1,6.57-9.69,11.38-2.48ZM69.23,32.5l2.7-1.42-3.45-3.3.75,4.72ZM83.99,22.13c-.28-.78-1.06-.99-1.84-.71l-2.31.82.86,2.43,2.31-.82c.78-.28,1.26-.92.98-1.72M181.98,51.34l1.99,2.3,2.43-4.11-4.42,1.81ZM205.04,83.01l.53,4.68-4.29-1.95-4.29,1.95.53-4.68-3.18-3.48,4.61-.94,2.32-4.1,2.32,4.1,4.61.94-3.18,3.48ZM201.16,65.1l-10.21,6.36-1.58-2.54,3.22-8-5.91,3.68-1.64-2.63,10.21-6.36,1.69,2.71-3.04,7.63,5.62-3.5,1.65,2.65ZM189.99,49l-6.13,11.3-2.3-2.66.92-1.58-3.1-3.58-1.7.68-2.3-2.66,12.05-4.45,2.56,2.96ZM181.9,40.44l-8.14,8.85-2.28-2.1,8.14-8.85,2.28,2.1ZM173.16,33.12l-5.63,7.43,3.85,2.92-1.63,2.16-6.33-4.79,7.26-9.59,2.47,1.87ZM167,28.88l-6.37,10.2-2.63-1.64,6.37-10.2,2.63,1.64ZM161.43,25.38l-9.2,8.97-3.54-1.66,1.01-12.81,3.18,1.49-.99,9.12,6.36-6.6,3.18,1.49ZM146.43,18.92l-3.82,11.4-2.94-.98,3.82-11.41,2.94.98ZM139.25,19.69l-2.88.69c-.19-1.02-1.02-2.01-2.15-2.25-1.92-.41-3.59.76-4.01,2.7-.42,1.92.62,3.69,2.54,4.11,1.13.24,2.3-.32,2.89-1.17l2.34,1.8c-1.08,1.34-2.97,2.66-5.81,2.05-3.61-.78-5.83-3.84-5.05-7.45.78-3.63,4.06-5.49,7.67-4.71,2.84.61,4.03,2.55,4.45,4.24M120.34,17.29l-3.18,3.48.53,4.68-4.29-1.95-4.29,1.95.53-4.68-3.18-3.48,4.61-.95,2.32-4.1,2.32,4.1,4.61.95ZM99.9,14.18l-3.02,7.94.97,4.75-3.04.62-.97-4.75-5.9-6.12,3.43-.7,3.45,3.82,1.64-4.86,3.44-.7ZM85.91,25.29l3.79,3.35-3.35,1.19-3.25-3.13-1.5.53,1.35,3.81-2.92,1.04-4.01-11.34,5.68-2.01c2.51-.89,4.53.27,5.28,2.38.7,1.97-.12,3.45-1.06,4.2M68.78,24.16l9.6,8.54-3.11,1.64-1.33-1.25-4.2,2.21.28,1.81-3.11,1.64-1.59-12.75,3.46-1.82ZM59.1,33.02l5.43,7.58-2.52,1.8-5.42-7.58-2.74,1.96-1.57-2.2,7.99-5.72,1.57,2.2-2.73,1.95ZM49.94,36.58l7.85,9.11-2.35,2.02-7.85-9.12,2.35-2.02ZM42.17,43.82l6.65,6.53,3.38-3.45,1.93,1.89-5.56,5.66-8.58-8.42,2.17-2.21ZM46.88,56.52l-1.96,2.4-9.31-7.61,1.96-2.4,9.31,7.61ZM32.84,54.63l10.21,6.35-1.64,2.63-6.75-4.2,5.15,6.77-.72,1.16-8.36-1.61,6.75,4.2-1.64,2.63-10.21-6.35,2.27-3.66,6.97,1.36-4.31-5.63,2.28-3.66ZM25.52,74.5l2.32,4.1,4.61.94-3.18,3.48.53,4.68-4.29-1.95-4.29,1.95.53-4.68-3.18-3.48,4.61-.94,2.32-4.1ZM203.21,91.54s11.32,1.46,13.73,3.33c-8.77-49.29-51.73-86.75-103.54-86.75S18.63,45.58,9.86,94.87c2.41-1.87,13.73-3.33,13.73-3.33l9.85,3.74c8.26-36.6,40.86-63.98,79.96-63.98s71.69,27.38,79.96,63.98l9.85-3.74ZM155.33,87.4h1.68c0-19.16,5.85-25.66,4.93-25.66-.81,0-6.6,8.99-6.6,25.66M154.36,74.41c1.3-16.67,5.41-19.7,4.76-19.81-.54,0-3.57,2-5.57,12.29.32,2.33.65,4.82.81,7.52M162.03,90.67c.06,0-2.74,1.46-5.25,0-1.17-.76-3.58-.92-5.42,0-1.85.92-4.03.65-5.65-.11-1.85-.81-3.69-.54-4.64-.11-.78.33-2.79,1.68-5.87.33,0,0-.11,0-.11-.11-1.17-.65-3.58-.92-5.42,0-1.84.92-4.02.65-5.64-.11-1.84-.81-3.69-.54-4.64-.11-.78.33-2.79,1.57-5.92.22h0s0,0,0,0h0s0,0,0,0c-3.14,1.35-5.15.11-5.94-.22-.95-.43-2.8-.7-4.65.11-1.63.76-3.81,1.03-5.66.11-1.85-.92-4.26-.65-5.44,0,0,.11-.11.11-.11.11-3.08,1.35-5.1,0-5.88-.33-.95-.43-2.8-.7-4.65.11-1.63.76-3.81,1.03-5.66.11-1.85-.92-4.26-.76-5.44,0-2.52,1.46-5.32,0-5.27,0v4.01c2.07.81,2.63.81,5.32-.11,3.03-1.03,4.54-.32,5.44,0,.9.32,2.52,1.14,5.55-.11,2.91-1.25,5.21.11,5.21.11,2.86,1.46,5.44,0,5.44,0h.11c2.92-1.24,4.6-.32,5.44,0,.9.32,2.52,1.14,5.55-.11,2.91-1.25,5.21.11,5.21.11,3.02,1.46,5.43,0,5.44,0,0,0,2.41,1.46,5.42,0,0,0,2.29-1.35,5.2-.11,3.02,1.24,4.64.43,5.53.11.84-.32,2.51-1.24,5.42,0h.11s2.57,1.46,5.42,0c0,0,2.29-1.35,5.2-.11,3.02,1.24,4.64.43,5.53.11.9-.32,2.4-1.03,5.42,0,2.68.92,3.24.92,5.31.11v-4.01ZM150.62,87.4h2.92c0-30.2-8.07-39.19-8.88-39.3-.87,0,5.96,5.95,5.96,39.3M148.13,87.4h1.68c0-16.67-6.6-25.66-7.36-25.66-.92,0,5.68,6.5,5.68,25.66M108.79,75.67v-8.55h9.22v8.55c0,2.7.45,3.15,3.15,3.15h7.2c2.7,0,3.15-.68,3.15-3.15v-21.36s0-.23-.22-.23l-17.99-15.74-17.99,15.29v22.04c0,2.7.45,3.15,3.15,3.15h7.2c2.47,0,3.15-.45,3.15-3.15M129.68,82.93c-1.85.92-4.03.65-5.66-.11-1.85-.81-3.7-.54-4.65-.11-.78.22-2.83,1.44-5.94.13v-.02s-.02,0-.03,0c-.01,0-.02,0-.03,0v.02c-3.1,1.31-5.16.09-5.93-.13-.95-.43-2.8-.7-4.65.11-1.62.76-3.81,1.03-5.66.11-1.85-.92-4.26-.65-5.44,0-1.29.76-2.69.65-2.69.65l-3.25,2.92c1.4.76,3.14,1.46,6.05.22,2.91-1.24,4.6-.33,5.43,0,.9.32,2.52,1.14,5.55-.11,2.91-1.24,5.21.11,5.21.11,2.92,1.41,5.25.11,5.4.02.16.09,2.48,1.39,5.4-.02,0,0,2.3-1.35,5.21-.11,3.02,1.24,4.65.43,5.55.11.84-.33,2.52-1.24,5.43,0,2.91,1.25,4.65.54,6.05-.22l-3.25-2.92s-1.4.11-2.69-.65c-1.18-.65-3.59-.92-5.44,0M76.99,87.4h1.68c0-19.16,6.6-25.66,5.68-25.66-.76,0-7.36,8.99-7.36,25.66M76.18,87.4c0-33.34,6.82-39.3,5.95-39.3-.81.11-8.88,9.09-8.88,39.3h2.92ZM67.68,54.59c-.65.11,3.46,3.14,4.76,19.81.16-2.71.49-5.2.81-7.52-2-10.28-5.03-12.29-5.57-12.29M69.79,87.4h1.68c0-16.67-5.79-25.66-6.6-25.66-.92,0,4.93,6.5,4.93,25.66M43.91,118.01c0-.18-.07-.4-.15-.76-.32-1.16-.79-2.75-1.34-4.81-.32-1.05-.4-1.3-.61-1.3-.25,0-.33.22-.65,1.74-.62,2.57-.94,3.83-1.08,4.48-.11.51-.15.72-.15.83,0,.15.04.25.51.25h2.86c.54,0,.62-.22.62-.43M92.07,111.03c0-3.94-1.56-5.35-3.36-5.35-1.05,0-1.3.4-1.3,1.12v7.77c0,.36.04.69.25.94.22.22.61.4,1.19.4,1.92,0,3.22-1.66,3.22-4.88M121.83,111.03c0-3.94-1.56-5.35-3.36-5.35-1.05,0-1.3.4-1.3,1.12v7.77c0,.36.04.69.25.94.22.22.61.4,1.19.4,1.92,0,3.22-1.66,3.22-4.88M161.35,110.63c0-3.43-1.45-4.95-3.76-4.95-1.34,0-1.55.32-1.55,1.3v7.56c0,.9,0,.98,1.23.98,2.24,0,4.09-1.88,4.09-4.88M183.37,110.63c0-3.43-1.45-4.95-3.76-4.95-1.34,0-1.56.32-1.56,1.3v7.56c0,.9,0,.98,1.23.98,2.24,0,4.09-1.88,4.09-4.88M214,105.11c0,.69-.37.78-.92.92-.73.23-1.38.55-2.11,2.2-1.88,4.4-3.26,7.43-4.26,9.77-.78,1.7-.96,2.25-.96,2.89v9.12c0,1.24.55,1.65,1.33,1.83.73.14,1.51.14,1.51.83,0,.6-.32.73-1.24.73-1.1,0-2.11-.18-4.49-.18-2.71,0-4.04.18-5.32.18-.83,0-1.15-.23-1.15-.69s.32-.78,1.74-1.05c.87-.18,1.24-.46,1.24-2.06v-8.48c0-.6-.09-.96-.5-1.83-1.56-3.85-3.16-7.75-4.82-11.55-.5-1.19-1.1-1.51-1.79-1.7-.6-.18-1.1-.23-1.1-.73,0-.64.51-.96,1.15-.96,1.83,0,2.8.18,4.49.18,2.43,0,4.17-.18,5.23-.18.6,0,.92.28.92.73,0,.64-.55.69-1.15.87-.78.23-1.19.41-1.19,1.06,0,.41.28,1.19,1.74,5,2.02,5.14,2.25,5.41,2.57,5.41.41,0,.41-.27,2.2-4.35,1.61-3.58,2.11-5.27,2.11-5.78,0-.83-.55-1.1-1.47-1.28-.6-.14-1.15-.23-1.15-.82,0-.5.32-.83,1.15-.83,1.06,0,1.97.18,2.84.18,1.1,0,1.83-.18,2.61-.18.55,0,.78.23.78.78M190.96,126.8c0,.36-.29.51-.87.51-.65,0-1.52-.11-2.57-.11-.98,0-1.92.11-2.57.11-.98,0-1.34-1.19-2.06-3-.69-1.77-1.48-3.87-2.6-6.62-.32-.69-.72-.87-1.45-.87-.62,0-.8.07-.8.51v7.16c0,.94.4,1.37,1.01,1.55.76.18,1.26.25,1.26.76,0,.43-.47.51-1.01.51-.83,0-1.48-.14-3.76-.14s-2.82.14-3.8.14c-.58,0-1.12-.04-1.12-.54s.47-.54,1.34-.72c.61-.11,1.05-.43,1.05-1.59v-17.32c0-1.01-.36-1.34-.98-1.48-.61-.14-1.23-.14-1.23-.65s.32-.61,1.19-.61c1.55,0,2.53.14,4.38.14,1.66,0,2.89-.14,4.77-.14,4.16,0,7.38,2.13,7.38,6.04,0,1.92-.76,3.58-2.39,4.63-.83.51-1.45.61-1.84.83.25.18.61.43.98,1.26.94,2.1,1.63,3.9,2.24,5.35.76,1.77,1.34,3.07,2.17,3.47.54.22,1.27.36,1.27.83M168.94,126.8c0,.36-.29.51-.87.51-.65,0-1.52-.11-2.57-.11-.98,0-1.92.11-2.57.11-.98,0-1.34-1.19-2.06-3-.69-1.77-1.48-3.87-2.6-6.62-.32-.69-.72-.87-1.45-.87-.61,0-.8.07-.8.51v7.16c0,.94.4,1.37,1.01,1.55.76.18,1.26.25,1.26.76,0,.43-.47.51-1.01.51-.83,0-1.48-.14-3.76-.14s-2.82.14-3.8.14c-.58,0-1.12-.04-1.12-.54s.47-.54,1.34-.72c.61-.11,1.05-.43,1.05-1.59v-17.32c0-1.01-.36-1.34-.98-1.48-.62-.14-1.23-.14-1.23-.65s.33-.61,1.19-.61c1.56,0,2.53.14,4.38.14,1.66,0,2.89-.14,4.77-.14,4.16,0,7.38,2.13,7.38,6.04,0,1.92-.76,3.58-2.39,4.63-.83.51-1.45.61-1.84.83.25.18.61.43.98,1.26.94,2.1,1.63,3.9,2.24,5.35.76,1.77,1.34,3.07,2.17,3.47.54.22,1.27.36,1.27.83M145.4,123.29c0,1.52,0,2.46-.04,3-.04.94-.33,1.01-.94,1.01-2.49,0-5.28-.14-7.77-.14-2.28,0-4.19.14-5.68.14-.83,0-1.12-.14-1.12-.69,0-.36.22-.54.9-.69,1.01-.22,1.34-.62,1.34-1.52v-17.61c0-1.01-.9-.98-1.45-1.27-.43-.14-.69-.22-.69-.54,0-.36.22-.61,1.09-.61,1.05,0,2.86.14,6.54.14,2.28,0,4.92-.14,6.29-.14.69,0,.9.14.9,1.08v5.06c0,.51-.14.76-.51.76-.43,0-.76-.43-.98-.94-.22-.54-.4-1.05-.54-1.48-.65-1.81-1.45-3.18-3.8-3.18-.69,0-1.19.11-1.45.29-.29.11-.4.43-.4.83v7.27c0,.43.18.51,1.05.51,1.7,0,2.21-.51,2.49-1.66.33-1.3.36-1.55.83-1.55.36,0,.54.18.54.98,0,1.01-.14,2.06-.14,3,0,1.08.14,2.42.14,3.43,0,.54-.22.76-.58.76s-.51-.33-.76-1.34c-.43-1.88-.98-2.31-2.24-2.31-1.12,0-1.34.11-1.34.47v8.06c0,1.16.61,1.59,2.17,1.59,2.75,0,3.72-1.52,4.48-4.48.29-1.16.54-1.45.94-1.45.22,0,.36,0,.47.18.14.32.22,1.08.22,3.04M127,111.25c0,3.47-2.46,6.33-5.97,6.33-.98,0-1.74-.14-2.28-.29-.43-.14-.79-.18-1.12-.18-.4,0-.47.15-.47.62v6.76c0,.9.22,1.41.87,1.48,1.23.18,1.59.25,1.59.72,0,.54-.51.61-1.16.61-.98,0-1.66-.14-3.76-.14s-2.71.14-3.65.14c-.58,0-.9-.04-.9-.58,0-.47.18-.61,1.3-.79.43-.07.65-.51.65-1.34v-17.57c0-1.01-.36-1.3-.87-1.37-.69-.07-1.05-.14-1.05-.65,0-.33.22-.61.65-.61.98,0,2.49.14,4.45.14,1.56,0,3.18-.14,4.7-.14,4.12,0,7.02,2.46,7.02,6.87M97.24,111.25c0,3.47-2.46,6.33-5.97,6.33-.98,0-1.73-.14-2.28-.29-.43-.14-.79-.18-1.12-.18-.4,0-.47.15-.47.62v6.76c0,.9.22,1.41.87,1.48,1.23.18,1.59.25,1.59.72,0,.54-.51.61-1.16.61-.98,0-1.66-.14-3.76-.14s-2.71.14-3.65.14c-.58,0-.9-.04-.9-.58,0-.47.18-.61,1.3-.79.43-.07.65-.51.65-1.34v-17.57c0-1.01-.36-1.3-.87-1.37-.69-.07-1.05-.14-1.05-.65,0-.33.22-.61.65-.61.98,0,2.49.14,4.45.14,1.56,0,3.18-.14,4.7-.14,4.12,0,7.01,2.46,7.01,6.87M77.9,126.8c0,.43-.54.51-1.23.51-1.09,0-2.24-.14-3.87-.14-1.41,0-2.68.14-3.69.14-.51,0-1.12-.11-1.12-.54v-.04c0-.54.54-.69,1.37-.79.9-.11,1.01-.47,1.01-2.53,0-3.8-.18-9.36-.33-13.09,0-.61-.07-.76-.22-.76-.18,0-.22.18-.32.51-.36,1.05-1.27,4.27-4.27,14.21-.72,2.39-.79,2.89-1.77,2.89-.69,0-.72-.22-1.48-3.29-1.37-5.71-3.15-12.04-3.58-13.74-.11-.4-.22-.61-.36-.61-.22,0-.22.25-.25.76-.33,4.59-.43,9.11-.43,11.93,0,1.84-.07,3.47.79,3.69s1.7.29,1.7.83c0,.4-.36.58-.8.58-.76,0-1.37-.14-2.53-.14-1.05,0-1.74.14-2.35.14-.4,0-.58-.14-.58-.58,0-.61.54-.61,1.12-.72.69-.14,1.05-.69,1.12-2.06.22-4.52.8-12.73.8-15.91,0-1.74,0-2.13-1.34-2.39-.51-.07-.94-.18-.94-.58,0-.61.72-.69,1.26-.69,1.09,0,2.28.14,3.36.14.79,0,1.74-.14,2.53-.14.47,0,.62.04.8.8.94,3.58,1.81,7.12,2.75,10.7.29,1.26.36,1.77.65,1.77.18,0,.29-.33.65-1.45,1.05-3.58,2.13-7.23,3.22-10.77.22-.65.43-1.05.8-1.05.79,0,1.95.14,2.89.14,1.05,0,2.31-.14,3.22-.14.43,0,.94.18.94.65s-.36.61-1.3.72c-.76.11-1.08.58-1.08,1.74,0,4.56.43,11.93.47,16.74.04,1.12.29,1.59.72,1.7,1.27.36,1.66.4,1.66.87M52.66,126.8c0,.47-.47.51-1.12.51-1.05,0-1.99-.14-3.04-.14-1.12,0-2.21.14-3.22.14-.87,0-1.05-.14-1.05-.58,0-.4.36-.61.83-.69.43-.11.83-.29.83-.83s-.43-1.95-1.12-4.41c-.22-.87-.4-1.05-.83-1.05h-3.87c-.47,0-.62.11-.83,1.01-.72,2.64-.9,3.47-.9,4.08,0,.72.4,1.05,1.05,1.19.62.15,1.09.22,1.09.72,0,.43-.22.54-.69.54-.62,0-1.34-.14-2.13-.14-.87,0-1.63.14-2.17.14-.43,0-.58-.22-.58-.58s.29-.51.65-.65c.4-.14.83-.33,1.01-.9.94-2.93,3.11-11.54,4.85-18.48.14-.54.25-1.08.36-1.59.14-.61.36-.79,1.63-.79,1.16,0,1.45.11,1.63.76,1.92,6.51,3.8,12.98,5.71,19.45.25.94.69,1.41,1.09,1.59.4.22.83.29.83.69M32.38,130.42c0,1.24-.37,1.6-1.15,2.02-1.19.78-3.62,1.51-6.1,1.51-7.75,0-12.33-6.47-12.33-15.09s4.45-15.09,12.47-15.09c2.25,0,4.59.69,5.59,1.19.78.32.83.41.87,1.74.05.96.09,2.61.09,5.18,0,1.33-.32,1.56-.78,1.56-.92,0-1.33-1.19-1.93-3.12-.83-2.71-1.93-4.91-4.04-4.91-2.71,0-4.95,3.94-4.95,12.88,0,10.5,3.12,13.99,5.64,13.99s3.53-2.93,4.17-5.73c.46-1.97.69-3.16,1.47-3.16.64,0,.96.18.96,1.7v5.32ZM218.69,113.4c0-5.09-.48-10.05-1.18-14.95H9.29c-.7,4.9-1.18,9.86-1.18,14.95,0,9.48,1.37,18.62,3.72,27.35h32.8c14.82-4.39,40.06-7.28,68.77-7.28s53.96,2.9,68.77,7.28h32.8c2.35-8.74,3.72-17.88,3.72-27.35"/>
  </g>
</svg>