<?xml version="1.0" encoding="UTF-8"?>
<svg id="Layer_1" xmlns="http://www.w3.org/2000/svg" version="1.1" xmlns:xlink="http://www.w3.org/1999/xlink" viewBox="0 0 216 216">
  <!-- Generator: Adobe Illustrator 30.6.0, SVG Export Plug-In . SVG Version: 2.1.4 Build 109)  -->
  <defs>
    <style>
      .st0 {
        fill: none;
      }

      .st1 {
        fill: #2a522f;
      }

      .st2 {
        clip-path: url(#clippath);
      }
    </style>
    <clipPath id="clippath">
      <rect class="st0" width="216" height="216"/>
    </clipPath>
  </defs>
  <g class="st2">
    <path class="st1" d="M191.13,85l2.31,2.44-.32,3.34,3.03-1.44,3.08,1.33-.43-3.33,2.22-2.52-3.3-.62-1.71-2.89-1.61,2.95-3.28.73ZM199.17,102.49c.5-.12.84-.21.84-.84,0-.5-.21-.71-.71-.71-.71,0-1.38.17-2.39.17-.8,0-1.64-.17-2.6-.17-.76,0-1.05.29-1.05.75,0,.55.5.63,1.05.75.84.17,1.34.42,1.34,1.18,0,.46-.46,2.01-1.93,5.28-1.64,3.73-1.64,3.98-2.01,3.98-.29,0-.5-.25-2.35-4.95-1.34-3.48-1.59-4.19-1.59-4.57,0-.59.38-.76,1.09-.97.54-.17,1.05-.21,1.05-.8,0-.42-.29-.67-.84-.67-.96,0-2.56.17-4.78.17-1.55,0-2.43-.17-4.11-.17-.59,0-1.05.29-1.05.88,0,.46.46.5,1.01.67.63.17,1.17.46,1.63,1.55,1.51,3.48,2.98,7.05,4.4,10.57.38.8.46,1.13.46,1.68v7.76c0,1.47-.33,1.72-1.13,1.89-1.3.25-1.59.54-1.59.97s.29.63,1.05.63c1.17,0,2.39-.17,4.87-.17,2.18,0,3.1.17,4.11.17.84,0,1.13-.13,1.13-.67,0-.63-.71-.63-1.38-.76-.71-.17-1.22-.54-1.22-1.68v-8.35c0-.59.17-1.09.88-2.64.92-2.14,2.18-4.91,3.9-8.93.67-1.51,1.26-1.8,1.93-2.01M190.4,144.47l3.13-1.21,2.97,1.57-.18-3.35,2.41-2.34-3.25-.87-1.48-3.01-1.83,2.82-3.32.48,2.12,2.61-.57,3.31ZM181.27,152.53c1.17-1.92,3.39-2.26,5.34-1.08,1.94,1.18,2.67,3.32,1.5,5.24-1.18,1.94-3.41,2.27-5.35,1.09-1.95-1.19-2.67-3.32-1.49-5.25M181.37,160.07c3.14,1.91,6.79.98,8.71-2.18,1.91-3.14,1.06-6.81-2.08-8.72-3.14-1.91-6.79-.98-8.7,2.16-1.92,3.16-1.07,6.82,2.07,8.73M172,106.7c0,2.74-1.69,4.46-3.74,4.46-1.12,0-1.12-.07-1.12-.89v-6.91c0-.89.2-1.19,1.42-1.19,2.12,0,3.44,1.39,3.44,4.53M172.86,111.5c.36-.2.93-.3,1.69-.76,1.49-.96,2.18-2.48,2.18-4.23,0-3.57-2.94-5.52-6.75-5.52-1.72,0-2.84.13-4.37.13-1.69,0-2.58-.13-4-.13-.79,0-1.09.1-1.09.56s.56.46,1.12.6c.56.13.89.43.89,1.36v15.84c0,1.06-.4,1.36-.96,1.46-.79.17-1.22.2-1.22.66s.5.5,1.02.5c.89,0,1.39-.13,3.47-.13s2.68.13,3.44.13c.5,0,.93-.07.93-.46,0-.46-.46-.53-1.16-.69-.56-.17-.93-.56-.93-1.42v-6.55c0-.4.16-.46.73-.46.66,0,1.03.17,1.32.79,1.03,2.51,1.75,4.43,2.38,6.05.66,1.65.99,2.74,1.89,2.74.59,0,1.45-.1,2.35-.1.96,0,1.75.1,2.35.1.53,0,.79-.13.79-.46,0-.43-.66-.56-1.16-.76-.76-.36-1.29-1.56-1.98-3.17-.56-1.32-1.19-2.98-2.05-4.9-.33-.76-.66-.99-.89-1.16M173.36,160.17l9.59,7.54,1.6-2.04-9.59-7.54-1.6,2.04ZM164.37,170.06l8.83,8.42,1.79-1.88-3.72-3.54,3.98-4.17,3.72,3.55,1.8-1.89-8.83-8.42-1.8,1.89,3.47,3.31-3.98,4.17-3.47-3.31-1.79,1.88ZM159.49,176.55c1.8-1.35,3.99-.83,5.36,1,1.36,1.82,1.24,4.07-.56,5.42-1.82,1.36-4.01.83-5.37-.99-1.37-1.83-1.24-4.07.58-5.43M156.77,183.58c2.2,2.94,5.93,3.44,8.89,1.23,2.95-2.2,3.52-5.92,1.32-8.87-2.2-2.95-5.93-3.45-8.88-1.24-2.96,2.21-3.54,5.93-1.34,8.88M149.89,192.76c.35.68,1.09.92,1.71.61.13-.07.24-.17.28-.21.16.64-.09,1.63-.47,2.17l1.27.28c.65-1.23.76-2.67.13-3.89-.54-1.06-1.53-1.31-2.3-.92-.7.36-.99,1.24-.62,1.96M147,103.36c0-.89.2-1.19,1.42-1.19,2.12,0,3.44,1.39,3.44,4.53,0,2.74-1.69,4.46-3.74,4.46-1.12,0-1.12-.07-1.12-.89v-6.91ZM144.71,121.81c2.08,0,2.68.13,3.44.13.5,0,.93-.07.93-.46,0-.46-.46-.53-1.16-.69-.56-.17-.93-.56-.93-1.42v-6.55c0-.4.16-.46.73-.46.66,0,1.03.17,1.32.79,1.03,2.51,1.75,4.43,2.38,6.05.66,1.65.99,2.74,1.89,2.74.59,0,1.45-.1,2.35-.1.96,0,1.75.1,2.35.1.53,0,.79-.13.79-.46,0-.43-.66-.56-1.16-.76-.76-.36-1.29-1.56-1.98-3.17-.56-1.32-1.19-2.98-2.05-4.9-.33-.76-.66-.99-.89-1.16.36-.2.93-.3,1.69-.76,1.49-.96,2.18-2.48,2.18-4.23,0-3.57-2.94-5.52-6.75-5.52-1.72,0-2.84.13-4.37.13-1.69,0-2.58-.13-4-.13-.79,0-1.09.1-1.09.56s.56.46,1.12.6c.56.13.89.43.89,1.36v15.84c0,1.06-.4,1.36-.96,1.46-.79.17-1.22.2-1.22.66s.5.5,1.03.5c.89,0,1.39-.13,3.47-.13M146.35,84.27h1.54c0-17.53,5.35-23.47,4.51-23.47-.74,0-6.04,8.22-6.04,23.47M145.46,72.39c1.19-15.25,4.95-18.02,4.36-18.12-.49,0-3.27,1.83-5.1,11.24.3,2.13.59,4.41.74,6.88M152.48,87.27c.05,0-2.5,1.34-4.8,0-1.07-.69-3.27-.84-4.96,0-1.69.84-3.68.59-5.16-.1-1.69-.74-3.37-.49-4.24-.1-.71.3-2.55,1.54-5.37.3,0,0-.1,0-.1-.1-1.07-.6-3.27-.84-4.96,0-1.69.84-3.68.59-5.16-.1-1.69-.74-3.37-.49-4.24-.1-.72.3-2.56,1.44-5.42.2h0c-2.87,1.24-4.71.1-5.43-.2-.87-.4-2.56-.64-4.25.1-1.49.69-3.49.94-5.18.1-1.69-.84-3.9-.6-4.97,0,0,.1-.1.1-.1.1-2.82,1.24-4.67,0-5.38-.3-.87-.4-2.56-.64-4.25.1-1.49.69-3.49.94-5.18.1-1.69-.84-3.9-.69-4.97,0-2.31,1.34-4.87,0-4.82,0v3.66c1.9.74,2.41.74,4.87-.1,2.77-.94,4.15-.3,4.97,0,.82.3,2.31,1.04,5.07-.1,2.67-1.14,4.77.1,4.77.1,2.61,1.34,4.97,0,4.97,0h.1c2.67-1.14,4.2-.3,4.97,0,.82.3,2.31,1.04,5.07-.1,2.66-1.14,4.77.1,4.77.1,2.76,1.33,4.96,0,4.97,0,0,0,2.2,1.33,4.96,0,0,0,2.1-1.24,4.75-.1,2.76,1.14,4.24.4,5.06.1.77-.3,2.3-1.14,4.96,0h.1s2.35,1.34,4.96,0c0,0,2.1-1.24,4.75-.1,2.76,1.14,4.24.4,5.06.1.82-.3,2.2-.94,4.96,0,2.46.84,2.97.84,4.86.1v-3.66ZM142.05,84.27h2.67c0-27.62-7.38-35.84-8.12-35.94-.79,0,5.45,5.45,5.45,35.94M139.77,84.27h1.54c0-15.25-6.04-23.47-6.73-23.47-.84,0,5.2,5.94,5.2,23.47M103.78,73.55v-7.82h8.43v7.82c0,2.47.41,2.88,2.88,2.88h6.58c2.47,0,2.88-.62,2.88-2.88v-19.54s0-.21-.2-.21l-16.45-14.4-16.46,13.99v20.16c0,2.47.41,2.88,2.88,2.88h6.58c2.26,0,2.88-.41,2.88-2.88M122.89,80.19c-1.69.84-3.69.59-5.18-.1-1.69-.74-3.38-.5-4.25-.1-.71.2-2.59,1.32-5.43.12v-.02s-.02,0-.03,0c-.01,0-.02,0-.03,0v.02c-2.84,1.2-4.72.08-5.43-.12-.87-.4-2.56-.64-4.26.1-1.49.69-3.49.94-5.18.1-1.69-.84-3.9-.6-4.97,0-1.18.69-2.46.59-2.46.59l-2.97,2.67c1.28.69,2.87,1.34,5.53.2,2.67-1.14,4.2-.3,4.97,0,.82.3,2.31,1.04,5.07-.1,2.67-1.14,4.77.1,4.77.1,2.67,1.29,4.8.1,4.94.02.15.08,2.27,1.27,4.94-.02,0,0,2.1-1.24,4.77-.1,2.77,1.14,4.25.4,5.07.1.77-.3,2.31-1.14,4.97,0,2.67,1.14,4.25.49,5.53-.2l-2.97-2.67s-1.28.1-2.46-.59c-1.08-.6-3.28-.84-4.97,0M74.7,84.27h1.53c0-17.53,6.04-23.47,5.2-23.47-.69,0-6.73,8.22-6.73,23.47M73.95,84.27c0-30.5,6.24-35.94,5.45-35.94-.74.1-8.12,8.32-8.12,35.94h2.67ZM66.18,54.27c-.6.1,3.17,2.87,4.36,18.12.15-2.48.44-4.75.74-6.88-1.83-9.4-4.6-11.24-5.1-11.24M68.11,84.27h1.54c0-15.25-5.3-23.47-6.04-23.47-.84,0,4.5,5.94,4.5,23.47M75.07,143.72l3.72,7.82h-.66l.36.74,1.5-.74h-.58l5.4-2.57-.86-1.81-3.83,1.82-.65-1.37,3.75-1.78-.86-1.81-3.75,1.78-.6-1.26,3.83-1.82-.86-1.81-5.91,2.82ZM90.23,144.34c.14.42-.24.82-.97,1.07-1.17.38-2.28.18-3.09-.23l-.6,2.08c1.12.52,2.49.68,4.21.11,2.28-.75,3.17-2.29,2.61-4-1.04-3.15-5.57-.79-5.92-1.84-.12-.37.09-.68.72-.89.84-.28,1.86-.29,2.77.08l.66-2.03c-1.16-.48-2.47-.5-3.84-.05-2.18.71-2.95,2.38-2.49,3.8,1.07,3.27,5.56.77,5.93,1.89M98.87,144.96l-1.28-6.8,2.45-.46-.37-1.97-7.17,1.35.37,1.97,2.46-.46,1.28,6.8,2.26-.43ZM84.23,103.19c0-.66.23-1.03,1.19-1.03,1.65,0,3.07,1.29,3.07,4.89,0,2.94-1.19,4.47-2.94,4.47-.53,0-.89-.17-1.09-.36-.2-.23-.23-.53-.23-.86v-7.11ZM79.6,103.39v16.07c0,.76-.2,1.16-.6,1.22-1.03.17-1.19.3-1.19.73,0,.5.3.53.83.53.86,0,1.39-.13,3.34-.13s2.55.13,3.44.13c.59,0,1.06-.07,1.06-.56,0-.43-.33-.5-1.46-.66-.6-.07-.79-.53-.79-1.36v-6.19c0-.43.07-.56.43-.56.3,0,.63.03,1.03.17.5.13,1.19.26,2.08.26,3.21,0,5.46-2.61,5.46-5.79,0-4.03-2.65-6.28-6.42-6.28-1.39,0-2.88.13-4.3.13-1.79,0-3.18-.13-4.07-.13-.4,0-.6.26-.6.56,0,.46.33.53.96.6.46.07.79.33.79,1.26M102.62,142.09c-.68.07-1.21.7-1.14,1.37.07.68.71,1.19,1.39,1.12.68-.07,1.19-.7,1.13-1.38-.07-.67-.7-1.18-1.38-1.11M108.79,139.64l1.54-1.47-.18,5.98,2.3.07.27-8.92-1.99-.06-3.21,2.98,1.27,1.42ZM111.44,103.19c0-.66.23-1.03,1.19-1.03,1.65,0,3.08,1.29,3.08,4.89,0,2.94-1.19,4.47-2.94,4.47-.53,0-.89-.17-1.09-.36-.2-.23-.23-.53-.23-.86v-7.11ZM105.86,121.95c.86,0,1.39-.13,3.34-.13s2.55.13,3.44.13c.6,0,1.06-.07,1.06-.56,0-.43-.33-.5-1.45-.66-.6-.07-.79-.53-.79-1.36v-6.19c0-.43.07-.56.43-.56.3,0,.63.03,1.03.17.5.13,1.19.26,2.08.26,3.21,0,5.46-2.61,5.46-5.79,0-4.03-2.64-6.28-6.42-6.28-1.39,0-2.88.13-4.3.13-1.79,0-3.17-.13-4.07-.13-.4,0-.6.26-.6.56,0,.46.33.53.96.6.46.07.79.33.79,1.26v16.07c0,.76-.2,1.16-.6,1.22-1.02.17-1.19.3-1.19.73,0,.5.3.53.83.53M118.55,139.97c-.67-.11-1.38-.54-1.25-1.28.08-.49.67-.92,1.5-.78,1.1.18,1.4.99,1.33,1.71-.45.35-1.02.44-1.58.35M119.87,141.14l-.02.11c-.18,1.07-1.1,1.88-2.39,1.67-.71-.12-1.17-.38-1.59-.86l-1.27,1.58c.57.62,1.5,1.12,2.53,1.29,2.67.44,4.65-1.03,5.11-3.83.42-2.54-.46-4.75-3.25-5.21-2.03-.34-3.72.7-4.03,2.51-.31,1.88,1,3.14,2.58,3.4.89.15,1.8-.14,2.32-.65M124.08,121.95c1.36,0,3.11-.13,5.19-.13,2.28,0,4.83.13,7.11.13.56,0,.83-.07.86-.93.03-.5.03-1.36.03-2.75,0-1.79-.07-2.48-.2-2.78-.1-.17-.23-.17-.43-.17-.36,0-.6.26-.86,1.32-.69,2.71-1.59,4.1-4.1,4.1-1.42,0-1.98-.4-1.98-1.46v-7.37c0-.33.2-.43,1.22-.43,1.16,0,1.65.4,2.05,2.12.23.93.36,1.22.69,1.22s.53-.2.53-.69c0-.93-.13-2.15-.13-3.14,0-.86.13-1.82.13-2.74,0-.73-.17-.89-.5-.89-.43,0-.46.23-.76,1.42-.26,1.06-.73,1.52-2.28,1.52-.79,0-.96-.07-.96-.46v-6.65c0-.36.1-.66.36-.76.23-.17.69-.26,1.32-.26,2.15,0,2.88,1.26,3.47,2.91.13.4.3.86.5,1.36.2.46.5.86.89.86.33,0,.46-.23.46-.69v-4.63c0-.86-.2-.99-.83-.99-1.26,0-3.67.13-5.75.13-3.37,0-5.03-.13-5.99-.13-.79,0-.99.23-.99.56,0,.3.23.36.63.5.5.26,1.32.23,1.32,1.16v16.11c0,.83-.3,1.19-1.22,1.39-.63.13-.83.3-.83.63,0,.5.26.63,1.03.63M126.32,142.31c.5-1.5,1.22-2.3,2.24-1.96,1.02.34,1.11,1.42.61,2.91-.5,1.5-1.23,2.31-2.24,1.97-1.02-.34-1.1-1.43-.6-2.93M124.11,141.58c-.75,2.23-.31,4.77,2.17,5.59,2.48.83,4.35-.93,5.1-3.17.75-2.23.31-4.75-2.17-5.58-2.48-.83-4.34.92-5.09,3.15M133.76,142.4l3.9,1.93-5.78,4.86,2.27,1.12,6.07-5.18.71-1.43-6.28-3.11-.89,1.8ZM132.97,188.04l4.44,11.36,2.42-.95-2.9-7.41,8.32,5.29,2.33-.91-4.45-11.36-2.42.95,2.79,7.14-8.06-5.08-2.49.97ZM125.74,191.88c2.19-.5,3.98.86,4.49,3.09.5,2.21-.52,4.23-2.72,4.72-2.21.5-4-.88-4.51-3.09-.51-2.23.52-4.23,2.74-4.73M120.4,197.19c.81,3.59,4.02,5.56,7.62,4.74,3.59-.81,5.63-3.98,4.81-7.56-.81-3.59-4.02-5.56-7.6-4.75-3.6.82-5.64,3.98-4.83,7.57M118.69,191.06l-9.71.69.16,2.28,3.56-.25.7,9.89,2.61-.19-.7-9.89,3.54-.25-.16-2.28ZM96.58,191.12l-.67,12.18,2.59.14.44-7.94,5.37,8.27,2.5.14.67-12.18-2.59-.14-.42,7.65-5.22-7.97-2.67-.15ZM104.24,165.05l2.5-.51,1.01-1.78.25-.44,1.26,2.22,2.5.51-1.72,1.89.29,2.54-2.33-1.06-2.33,1.06.29-2.54-1.72-1.89ZM98.24,155.39l-2.96.17.23,6.98.23,7.5.16,5.34,2.06.1,1.09.7,1.68,1.67,1.3.49.96.58,1.43-.29,1.08.39,1.27-.49,1.14-.2.54,1.05,1.17.67,1.49-.29.72-1.12-.02-1.71.74-1.72.82.13.13.85.51-.34.14-.76.15-1.4,1.24-1.42.73.12.79-.28.66-.43,1.48-1.88.04-.8.44-1.71.44-2.05.13-1.79-.33-.96.78-.45-.85-10.3-2.88,1.27-3.26,2.38-4.12,1.31-2.91-.22-3.65-1.4h0s-2.18.18-2.18.18l-2.63.11ZM91.83,190.06l-2.19,12,2.56.47,2.19-12-2.56-.47ZM82.45,187.77l-3.08,11.81,7.52,1.96.58-2.21-4.99-1.3,2.5-9.6-2.53-.66ZM68.24,188.61c-1.47,3.45.14,6.92,3.53,8.35,2.46,1.04,4.47.29,5.85-.77l-1.63-1.87c-.86.71-2.18,1-3.32.52-2.05-.87-2.87-3.07-1.97-5.19.9-2.12,3.05-3.06,5.1-2.18,1.15.49,1.85,1.64,1.93,2.75l2.48-.14c-.19-1.75-1.06-3.69-3.51-4.73-3.38-1.44-6.99-.21-8.46,3.26M59.16,178.67l-5.55,8.21,2.16,1.46,5.55-8.21,2.94,1.99,1.28-1.89-8.06-5.45-1.28,1.89,2.96,2ZM47.52,173.63l2.16-2.49,2.07,1.8c.77.67.96,1.66.3,2.42-.68.79-1.69.74-2.46.07l-2.07-1.8ZM49.21,167.71l-7.98,9.22,1.96,1.7,2.84-3.28,1.44,1.25-1.03,4.85,2.27,1.96.95-5.32c1.2.63,3,.64,4.4-.98,1.49-1.72,1.38-4-.54-5.67l-4.32-3.74ZM40.81,113.61c0-.1.03-.3.13-.76.13-.6.43-1.75.99-4.1.3-1.39.36-1.59.6-1.59.2,0,.26.23.56,1.19.5,1.89.93,3.34,1.22,4.4.07.33.13.53.13.69,0,.2-.07.4-.56.4h-2.61c-.43,0-.46-.1-.46-.23M39.35,119.7c0-.56.17-1.32.83-3.74.2-.83.33-.93.76-.93h3.54c.4,0,.56.17.76.96.63,2.25,1.03,3.54,1.03,4.03s-.36.66-.76.76c-.43.07-.76.26-.76.63,0,.4.17.53.96.53.93,0,1.92-.13,2.94-.13.96,0,1.82.13,2.78.13.6,0,1.03-.03,1.03-.46,0-.36-.4-.43-.76-.63-.36-.17-.76-.6-.99-1.46-1.75-5.92-3.47-11.84-5.22-17.79-.17-.6-.43-.69-1.49-.69-1.16,0-1.36.17-1.49.73-.1.46-.2.96-.33,1.46-1.59,6.35-3.57,14.22-4.43,16.9-.17.53-.56.69-.93.83-.33.13-.6.26-.6.6s.13.53.53.53c.5,0,1.19-.13,1.98-.13.73,0,1.39.13,1.95.13.43,0,.63-.1.63-.5,0-.46-.43-.53-.99-.66-.6-.13-.96-.43-.96-1.09M36.89,162.97c1.73-1.5,3.97-1.53,5.46.18,1.47,1.7,1.12,3.92-.61,5.42-1.72,1.49-3.97,1.53-5.45-.17-1.49-1.71-1.12-3.94.6-5.43M35.14,160.96c-2.78,2.41-3.01,6.17-.59,8.96,2.41,2.78,6.16,3.09,8.94.68,2.78-2.41,3.01-6.17.6-8.94-2.42-2.79-6.17-3.1-8.95-.69M33.8,151.37l1.42,2.35c.53.88.41,1.87-.47,2.4-.86.52-1.8.17-2.33-.71l-1.42-2.35,2.8-1.7ZM34.41,147.97l-10.43,6.32,1.35,2.22,3.72-2.26,1.61,2.66c1.37,2.25,3.66,2.57,5.47,1.47,1.83-1.11,2.61-3.28,1.24-5.54l-2.96-4.88ZM17.27,139.13l2.41,2.34-.18,3.35,2.97-1.57,3.13,1.21-.57-3.31,2.11-2.61-3.32-.48-1.83-2.82h0s0,0,0,0l-1.48,3.01-3.24.87ZM15.99,114.23c0,7.88,4.19,13.8,11.28,13.8,2.26,0,4.49-.67,5.58-1.38.71-.38,1.05-.71,1.05-1.85v-4.87c0-1.38-.29-1.55-.88-1.55-.71,0-.92,1.09-1.34,2.89-.59,2.56-1.51,5.24-3.82,5.24s-5.16-3.19-5.16-12.79c0-8.18,2.06-11.79,4.53-11.79,1.93,0,2.94,2.01,3.69,4.49.54,1.76.92,2.85,1.76,2.85.42,0,.71-.21.71-1.43,0-2.35-.04-3.86-.08-4.74-.04-1.22-.08-1.3-.8-1.59-.92-.46-3.06-1.09-5.12-1.09-7.34,0-11.41,6-11.41,13.8M18.28,84.22l-3.3.62,2.22,2.52-.43,3.33,3.08-1.33,3.03,1.44-.32-3.34,2.31-2.44-3.28-.73-1.61-2.95-1.71,2.89ZM36.45,66.75l-12.08-5.84-1.75,3.62,6.14,6.58-8.97-.71-1.74,3.61,12.09,5.84,1.24-2.57-8.71-4.21,10.36.8.54-1.12-7.07-7.62,8.72,4.21,1.25-2.59ZM40.09,61.37l-11.09-7.56-1.61,2.36,11.09,7.56,1.61-2.36ZM42.19,54.38l-8.35-7.02-1.85,2.2,10.27,8.63,5.5-6.55-1.93-1.62-3.65,4.34ZM52.04,47.57l-9.11-9.86-2.1,1.94,9.11,9.86,2.1-1.94ZM59.7,41.26l-6.55-8.72,3.12-2.34-1.51-2.01-8.56,6.43,1.51,2.01,3.14-2.36,6.55,8.72,2.3-1.73ZM61.28,101.71c-.17-.69-.3-.73-.73-.73-.73,0-1.59.13-2.32.13-.99,0-2.08-.13-3.08-.13-.5,0-1.16.07-1.16.63,0,.36.4.46.86.53,1.22.23,1.22.6,1.22,2.18,0,2.91-.53,10.42-.73,14.55-.07,1.26-.4,1.75-1.03,1.89-.53.1-1.02.1-1.02.66,0,.4.16.53.53.53.56,0,1.19-.13,2.15-.13,1.06,0,1.62.13,2.32.13.4,0,.73-.16.73-.53,0-.5-.76-.56-1.55-.76-.79-.2-.73-1.69-.73-3.37,0-2.58.1-6.71.4-10.91.03-.46.03-.69.23-.69.13,0,.23.2.33.56.4,1.56,2.02,7.34,3.27,12.57.69,2.81.73,3.01,1.36,3.01.89,0,.96-.46,1.62-2.65,2.74-9.09,3.57-12.04,3.9-13,.1-.3.13-.46.3-.46.13,0,.2.13.2.69.13,3.41.3,8.5.3,11.97,0,1.89-.1,2.22-.93,2.32-.76.1-1.26.23-1.26.73v.03c0,.4.56.5,1.03.5.93,0,2.08-.13,3.37-.13,1.49,0,2.55.13,3.54.13.63,0,1.12-.07,1.12-.46,0-.43-.36-.46-1.52-.79-.4-.1-.63-.53-.66-1.55-.03-4.4-.43-11.14-.43-15.31,0-1.06.3-1.49.99-1.59.86-.1,1.19-.23,1.19-.66s-.46-.6-.86-.6c-.83,0-1.99.13-2.94.13-.86,0-1.92-.13-2.65-.13-.33,0-.53.36-.73.96-.99,3.24-1.98,6.58-2.94,9.86-.33,1.03-.43,1.32-.6,1.32-.26,0-.33-.46-.6-1.62-.86-3.27-1.65-6.51-2.51-9.79M68.54,30.24l-3.69,1.98-.89-6.08,4.58,4.09ZM75.09,32.15l-10.91-9.37-3.15,1.7,1.81,14.27,2.85-1.53-.33-2.4,5.07-2.73,1.82,1.6,2.85-1.54ZM80.32,22.7l-2.87.95-1.14-3.44,2.86-.95c1.07-.35,2.11.02,2.45,1.07.36,1.09-.24,2.01-1.31,2.37M84.43,19.43c-.79-2.37-3.01-3.56-5.66-2.68l-5.96,1.98,4.23,12.74,2.71-.9-1.5-4.53,1.99-.66,4,3.69,3.13-1.04-4.49-3.89c1.27-.78,2.29-2.48,1.55-4.71M95.52,21.01l3.88-8.61-3.2.49-2.47,5.81-4.09-4.81-3.22.49,6.28,7.06.83,5.43,2.83-.43-.83-5.43ZM110.74,18.17l2.26-2.48-3.29-.67-1.66-2.92h0s-1.65,2.92-1.65,2.92l-3.29.68,2.27,2.48-.37,3.34,3.06-1.39,3.06,1.39-.38-3.34ZM128.3,18.65l2.63-.75c-.63-1.83-2.02-3.7-4.91-4.23-3.98-.73-7.55,1.46-8.3,5.54-.74,4.06,1.82,7.39,5.8,8.12,2.89.53,4.86-.77,6.1-2.24l-2.2-1.61c-.75.97-2.09,1.6-3.44,1.35-2.41-.44-3.82-2.6-3.36-5.1.46-2.49,2.53-4.02,4.95-3.57,1.35.25,2.38,1.32,2.74,2.49M134.89,30.12l4.34-12.7-2.7-.92-4.34,12.7,2.7.92ZM145.5,34.65l10.78-9.52-2.87-1.5-8.06,7.42,1.45-10.86-2.87-1.49-1.61,14.29,3.18,1.65ZM154.92,40.31l7.65-11.03-2.35-1.63-7.65,11.03,2.35,1.63ZM162.33,42.69l7.29-8.11-2.14-1.92-8.97,9.98,6.36,5.72,1.68-1.87-4.22-3.79ZM169.5,53.19l9.93-9.03-1.92-2.11-9.93,9.03,1.92,2.11ZM180.71,59.92l-2.33-3.48,5.96-1.47-3.64,4.95ZM179.44,66.63l8.28-11.76-1.99-2.98-14.03,3.16,1.8,2.69,2.36-.56,3.2,4.78-1.42,1.97,1.8,2.69ZM185.66,79.93l12.26-5.46-1.16-2.61-7.7,3.43,5.17-9.11-1.2-2.68-12.26,5.46,1.16,2.61,8-3.56-5.39,9.41,1.12,2.52Z"/>
  </g>
</svg>