<?xml version="1.0" encoding="UTF-8"?>
<svg id="Layer_1" xmlns="http://www.w3.org/2000/svg" version="1.1" xmlns:xlink="http://www.w3.org/1999/xlink" viewBox="0 0 241.21 241.21">
  <!-- Generator: Adobe Illustrator 30.6.0, SVG Export Plug-In . SVG Version: 2.1.4 Build 109)  -->
  <defs>
    <style>
      .st0 {
        fill: #fff;
      }

      .st1, .st2 {
        fill: none;
      }

      .st3 {
        fill: #29522e;
      }

      .st2 {
        stroke: #29522e;
        stroke-width: 1.5px;
      }

      .st4 {
        clip-path: url(#clippath);
      }
    </style>
    <clipPath id="clippath">
      <rect class="st1" width="241.21" height="241.21"/>
    </clipPath>
  </defs>
  <path class="st0" d="M120.6,239.28c65.45,0,118.67-53.23,118.67-118.67S186.05,1.93,120.6,1.93c-65.45,0-118.67,53.23-118.67,118.67s53.23,118.67,118.67,118.67h0Z"/>
  <g class="st4">
    <path class="st2" d="M120.6,240.08c65.77,0,119.48-53.55,119.48-119.48S186.53,1.13,120.6,1.13c-65.77,0-119.48,53.71-119.48,119.48s53.71,119.48,119.48,119.48h0Z"/>
  </g>
  <path class="st3" d="M233.97,120.6c0-5.47-.48-10.77-1.29-16.08H8.52c-.8,5.31-1.29,10.61-1.29,16.08,0,10.13,1.45,20.1,4.02,29.43h35.38c15.92-4.66,43.1-7.88,73.97-7.88s58.05,3.06,73.97,7.88h35.38c2.57-9.33,4.02-19.3,4.02-29.43h0ZM33.29,138.94c0,1.29-.32,1.77-1.29,2.25-1.29.8-3.86,1.61-6.59,1.61-8.36,0-13.35-6.91-13.35-16.24s4.82-16.24,13.51-16.24c2.41,0,4.98.8,5.95,1.29.8.32.96.48.96,1.93,0,.96.16,2.73.16,5.63,0,1.45-.32,1.61-.8,1.61-.96,0-1.45-1.29-2.09-3.38-.96-2.89-2.09-5.31-4.34-5.31-2.89,0-5.31,4.18-5.31,13.83,0,11.26,3.38,15.12,6.11,15.12s3.86-3.22,4.5-6.11c.48-2.09.8-3.38,1.61-3.38.64,0,.96.16.96,1.77v5.63h0ZM55.16,135.08c0,.48-.48.48-1.29.48-1.13,0-2.09-.16-3.22-.16-1.29,0-2.41.16-3.54.16-.96,0-1.13-.16-1.13-.64s.32-.64.96-.8c.48-.16.96-.32.96-.96s-.48-2.09-1.29-4.82c-.16-.96-.48-1.13-.96-1.13h-4.18c-.48,0-.64.16-.96,1.13-.8,2.89-.96,3.7-.96,4.34,0,.8.48,1.13,1.13,1.29.64.16,1.13.16,1.13.8,0,.48-.16.64-.8.64s-1.45-.16-2.25-.16c-.96,0-1.77.16-2.41.16-.48,0-.64-.16-.64-.64,0-.32.32-.48.64-.64.48-.16.96-.32,1.13-.96.96-3.22,3.38-12.38,5.15-19.94.16-.64.32-1.13.32-1.77.16-.64.32-.8,1.77-.8,1.29,0,1.61.16,1.77.8,2.09,7.08,4.02,13.99,6.11,20.9.32.96.8,1.45,1.13,1.77.96.48,1.45.48,1.45.96h0ZM82.33,135.08c0,.48-.64.48-1.29.48-1.13,0-2.41-.16-4.18-.16-1.45,0-2.89.16-4.02.16-.48,0-1.29-.16-1.29-.64h0c0-.64.64-.8,1.45-.8.96-.16,1.13-.48,1.13-2.73,0-4.02-.16-10.13-.32-14.15,0-.64,0-.8-.16-.8s-.16.16-.32.48c-.32,1.13-1.29,4.66-4.66,15.28-.8,2.57-.8,3.06-1.93,3.06-.8,0-.8-.16-1.61-3.54-1.45-6.11-3.38-13.03-3.86-14.79-.16-.48-.16-.64-.32-.64s-.16.32-.32.8c-.32,4.98-.48,9.81-.48,12.86,0,1.93,0,3.7.8,4.02.96.16,1.77.32,1.77.96,0,.48-.32.64-.8.64-.8,0-1.45-.16-2.73-.16-1.13,0-1.93.16-2.57.16-.48,0-.64-.16-.64-.64,0-.64.64-.64,1.29-.8.8-.16,1.13-.8,1.29-2.25.16-4.82.8-13.67.8-17.21,0-1.93,0-2.25-1.45-2.57-.48,0-.96-.16-.96-.64,0-.64.8-.8,1.29-.8,1.13,0,2.41.16,3.7.16.8,0,1.93-.16,2.73-.16.48,0,.64,0,.8.8.96,3.86,1.93,7.72,2.89,11.58.32,1.29.32,1.93.64,1.93.16,0,.32-.32.64-1.61,1.13-3.86,2.25-7.72,3.54-11.58.16-.64.48-1.13.8-1.13.8,0,2.09.16,3.06.16,1.13,0,2.41-.16,3.54-.16.48,0,.96.16.96.64s-.32.64-1.45.8c-.8.16-1.13.64-1.13,1.93,0,4.98.48,12.86.48,18.01,0,1.29.32,1.77.8,1.77,1.77.64,2.09.8,2.09,1.29h0ZM103.24,118.35c0,3.7-2.57,6.75-6.43,6.75-1.13,0-1.93-.16-2.41-.32s-.8-.16-1.29-.16-.48.16-.48.64v7.24c0,.96.16,1.45.96,1.61,1.29.16,1.77.32,1.77.8,0,.64-.48.64-1.29.64-1.13,0-1.77-.16-4.02-.16s-2.89.16-3.86.16c-.64,0-.96,0-.96-.64,0-.48.16-.64,1.45-.8.48,0,.64-.48.64-1.45v-18.98c0-1.13-.32-1.45-.96-1.45-.8,0-1.13-.16-1.13-.64,0-.32.16-.64.64-.64,1.13,0,2.73.16,4.82.16,1.61,0,3.38-.16,4.98-.16,4.34,0,7.56,2.57,7.56,7.4h0ZM135.24,118.35c0,3.7-2.57,6.75-6.43,6.75-1.13,0-1.93-.16-2.41-.32s-.8-.16-1.29-.16-.48.16-.48.64v7.24c0,.96.16,1.45.96,1.61,1.29.16,1.77.32,1.77.8,0,.64-.48.64-1.29.64-1.13,0-1.77-.16-4.02-.16s-2.89.16-3.86.16c-.64,0-.96,0-.96-.64,0-.48.16-.64,1.45-.8.48,0,.64-.48.64-1.45v-18.98c0-1.13-.32-1.45-.96-1.45-.8,0-1.13-.16-1.13-.64,0-.32.16-.64.64-.64,1.13,0,2.73.16,4.82.16,1.61,0,3.38-.16,4.98-.16,4.5,0,7.56,2.57,7.56,7.4h0ZM155.02,131.22v3.22c0,.96-.32,1.13-.96,1.13-2.73,0-5.63-.16-8.36-.16-2.41,0-4.5.16-6.11.16-.96,0-1.29-.16-1.29-.8,0-.32.16-.64.96-.8,1.13-.16,1.45-.64,1.45-1.61v-18.81c0-1.13-.96-1.13-1.61-1.29-.48-.16-.8-.16-.8-.64,0-.32.16-.64,1.13-.64,1.13,0,3.06.16,7.08.16,2.41,0,5.31-.16,6.75-.16.8,0,.96.16.96,1.13v5.47c0,.48-.16.8-.48.8-.48,0-.8-.48-1.13-.96-.16-.64-.48-1.13-.64-1.61-.64-1.93-1.61-3.38-4.02-3.38-.8,0-1.29.16-1.61.32s-.48.48-.48.96v7.88c0,.48.16.48,1.13.48,1.77,0,2.41-.48,2.73-1.77.32-1.45.32-1.61.96-1.61.32,0,.64.16.64,1.13,0,1.13-.16,2.25-.16,3.22,0,1.13.16,2.57.16,3.7,0,.64-.16.8-.64.8-.32,0-.48-.32-.8-1.45-.48-2.09-1.13-2.41-2.41-2.41s-1.45.16-1.45.48v8.68c0,1.29.64,1.77,2.41,1.77,2.89,0,4.02-1.61,4.82-4.82.32-1.29.64-1.61.96-1.61.16,0,.32,0,.48.16.32,0,.32.8.32,2.89h0ZM180.42,135.08c0,.32-.32.48-.96.48s-1.61-.16-2.73-.16-2.09.16-2.73.16c-1.13,0-1.45-1.29-2.25-3.22s-1.61-4.18-2.73-7.08c-.32-.8-.8-.96-1.61-.96-.64,0-.8,0-.8.48v7.72c0,.96.48,1.45,1.13,1.61.8.16,1.29.32,1.29.8s-.48.48-1.13.48c-.96,0-1.61-.16-4.02-.16s-3.06.16-4.02.16c-.64,0-1.29,0-1.29-.64,0-.48.48-.64,1.45-.8.64-.16,1.13-.48,1.13-1.77v-18.33c0-1.13-.32-1.45-1.13-1.61-.64-.16-1.29-.16-1.29-.64s.32-.64,1.29-.64c1.61,0,2.73.16,4.66.16,1.77,0,3.06-.16,5.15-.16,4.5,0,7.88,2.25,7.88,6.43,0,2.09-.8,3.86-2.57,4.98-.96.48-1.61.64-1.93.96.32.16.64.48,1.13,1.29.96,2.25,1.77,4.18,2.41,5.79.8,1.93,1.45,3.38,2.41,3.7.48.32,1.29.48,1.29.96h0ZM204.06,135.08c0,.32-.32.48-.96.48s-1.61-.16-2.73-.16-2.09.16-2.73.16c-1.13,0-1.45-1.29-2.25-3.22s-1.61-4.18-2.73-7.08c-.32-.8-.8-.96-1.61-.96-.64,0-.8,0-.8.48v7.72c0,.96.48,1.45,1.13,1.61.8.16,1.29.32,1.29.8s-.48.48-1.13.48c-.96,0-1.61-.16-4.02-.16s-3.06.16-4.02.16c-.64,0-1.29,0-1.29-.64,0-.48.48-.64,1.45-.8.64-.16,1.13-.48,1.13-1.77v-18.33c0-1.13-.32-1.45-1.13-1.61-.64-.16-1.29-.16-1.29-.64s.32-.64,1.29-.64c1.61,0,2.73.16,4.66.16,1.77,0,3.06-.16,5.15-.16,4.5,0,7.88,2.25,7.88,6.43,0,2.09-.8,3.86-2.57,4.98-.96.48-1.61.64-1.93.96.32.16.64.48,1.13,1.29.96,2.25,1.77,4.18,2.41,5.79.8,1.93,1.45,3.38,2.41,3.7.48.32,1.29.48,1.29.96h0ZM228.99,111.6c0,.8-.32.8-.96.96-.8.32-1.45.64-2.25,2.41-2.09,4.66-3.54,8.04-4.66,10.45-.8,1.77-.96,2.41-.96,3.06v9.81c0,1.29.64,1.77,1.45,1.93s1.61.16,1.61.96c0,.64-.32.8-1.29.8-1.13,0-2.25-.16-4.82-.16-2.89,0-4.34.16-5.79.16-.96,0-1.29-.32-1.29-.8s.32-.8,1.93-1.13c.96-.16,1.29-.48,1.29-2.25v-9.17c0-.64-.16-.96-.48-1.93-1.61-4.18-3.38-8.36-5.15-12.38-.48-1.29-1.13-1.61-1.93-1.77-.64-.16-1.13-.32-1.13-.8,0-.64.48-.96,1.29-.96,1.93,0,3.06.16,4.82.16,2.57,0,4.5-.16,5.63-.16.64,0,.96.32.96.8,0,.64-.64.8-1.29.96-.8.32-1.29.48-1.29,1.13,0,.48.32,1.29,1.93,5.31,2.09,5.47,2.41,5.79,2.73,5.79.48,0,.48-.32,2.41-4.66,1.77-3.86,2.25-5.63,2.25-6.27,0-.96-.64-1.13-1.61-1.45-.64-.16-1.29-.32-1.29-.96,0-.48.32-.96,1.29-.96,1.13,0,2.09.16,3.06.16,1.13,0,1.93-.16,2.89-.16.32.32.64.64.64,1.13h0ZM195.86,117.55c0-3.7-1.61-5.31-4.02-5.31-1.45,0-1.61.32-1.61,1.45v8.2c0,.96,0,1.13,1.29,1.13,2.41-.16,4.34-2.09,4.34-5.47h0ZM172.22,117.55c0-3.7-1.61-5.31-4.02-5.31-1.45,0-1.61.32-1.61,1.45v8.2c0,.96,0,1.13,1.29,1.13,2.41-.16,4.34-2.09,4.34-5.47h0ZM129.61,118.03c0-4.18-1.61-5.79-3.7-5.79-1.13,0-1.45.48-1.45,1.29v8.36c0,.32,0,.8.32.96.16.16.64.48,1.29.48,2.25,0,3.54-1.77,3.54-5.31h0ZM97.61,118.03c0-4.18-1.61-5.79-3.7-5.79-1.13,0-1.45.48-1.45,1.29v8.36c0,.32,0,.8.32.96.16.16.64.48,1.29.48,2.09,0,3.54-1.77,3.54-5.31h0ZM45.83,125.59c0-.16,0-.48-.16-.8-.32-1.29-.8-2.89-1.45-5.15-.32-1.13-.48-1.45-.64-1.45-.32,0-.32.16-.64,1.93-.64,2.73-.96,4.18-1.13,4.82-.16.48-.16.8-.16.96s0,.32.48.32h3.06c.48-.16.64-.48.64-.64h0ZM73.65,92.62h1.77c0-18.01-6.27-27.66-7.08-27.66-.96,0,5.31,7.08,5.31,27.66h0ZM76.54,78.63c.16-2.89.48-5.63.8-8.04-2.09-11.1-5.47-13.19-5.95-13.19-.64,0,3.7,3.22,5.15,21.23h0ZM80.56,92.62c0-35.86,7.4-42.29,6.43-42.29-.8.16-9.49,9.81-9.49,42.29h3.06ZM81.37,92.62h1.77c0-20.58,7.08-27.66,6.11-27.66-.8,0-7.88,9.65-7.88,27.66h0ZM138.13,87.8c-1.93.96-4.34.64-6.11-.16-1.93-.8-4.02-.64-4.98-.16-.8.16-3.06,1.61-6.43.16h0c-3.38,1.45-5.63.16-6.43-.16-.96-.48-3.06-.8-4.98.16-1.77.8-4.18,1.13-6.11.16-1.93-.96-4.66-.64-5.79,0-1.45.8-2.89.64-2.89.64l-3.54,3.22c1.45.8,3.38,1.61,6.59.16,3.22-1.29,4.98-.32,5.79,0,.96.32,2.73,1.29,5.95-.16,3.22-1.29,5.63.16,5.63.16,3.22,1.45,5.63.16,5.79,0,.16.16,2.73,1.45,5.79,0,0,0,2.41-1.45,5.63-.16,3.22,1.29,4.98.48,5.95.16s2.73-1.29,5.79,0c3.22,1.29,4.98.64,6.59-.16l-3.54-3.22s-1.45.16-2.89-.64c-1.29-.64-3.86-.96-5.79,0h0ZM115.62,79.92v-9.17h9.97v9.17c0,2.89.48,3.38,3.38,3.38h7.72c2.89,0,3.38-.8,3.38-3.38v-23s0-.32-.32-.32l-19.3-16.88-19.3,16.56v23.8c0,2.89.48,3.38,3.38,3.38h7.72c2.73-.16,3.38-.64,3.38-3.54h0ZM158.07,92.62h1.77c0-18.01-7.08-27.66-7.88-27.66-1.13,0,6.11,7.08,6.11,27.66h0ZM160.65,92.62h3.22c0-32.48-8.68-42.13-9.49-42.29-.96,0,6.27,6.43,6.27,42.29h0ZM173.03,96.16s-2.89,1.61-5.63,0c-1.29-.8-3.86-.96-5.79,0s-4.34.64-6.11-.16c-1.93-.8-4.02-.64-4.98-.16-.8.32-3.06,1.77-6.27.32,0,0-.16,0-.16-.16-1.29-.64-3.86-.96-5.79,0s-4.34.64-6.11-.16c-1.93-.8-4.02-.64-4.98-.16-.8.32-3.06,1.77-6.43.16h0c-3.38,1.45-5.63.16-6.43-.16-.96-.48-3.06-.8-4.98.16-1.77.8-4.18,1.13-6.11.16-1.93-.96-4.66-.64-5.79,0,0,.16-.16.16-.16.16-3.38,1.45-5.47,0-6.27-.32-.96-.48-3.06-.8-4.98.16-1.77.8-4.18,1.13-6.11.16-1.93-.96-4.66-.8-5.79,0-2.73,1.61-5.79,0-5.63,0v4.34c2.25.8,2.89.8,5.79-.16,3.22-1.13,4.82-.32,5.79,0s2.73,1.29,5.95-.16c3.22-1.29,5.63.16,5.63.16,3.06,1.61,5.79,0,5.79,0h.16c3.22-1.29,4.98-.32,5.79,0,.96.32,2.73,1.29,5.95-.16,3.22-1.29,5.63.16,5.63.16,3.22,1.61,5.79,0,5.79,0,0,0,2.57,1.61,5.79,0,0,0,2.41-1.45,5.63-.16,3.22,1.29,4.98.48,5.95.16s2.73-1.29,5.79,0h.16s2.73,1.61,5.79,0c0,0,2.41-1.45,5.63-.16,3.22,1.29,4.98.48,5.95.16s2.57-1.13,5.79,0c2.89.96,3.54.96,5.79.16v-4.34h0ZM164.67,78.63c1.45-18.01,5.79-21.23,5.15-21.39-.64,0-3.86,2.09-5.95,13.19.32,2.57.64,5.31.8,8.2h0ZM165.79,92.62h1.77c0-20.58,6.27-27.66,5.31-27.66-.8,0-7.08,9.65-7.08,27.66h0ZM217.25,97.13s12.22,1.61,14.79,3.54C222.56,47.6,176.4,7.24,120.6,7.24S18.49,47.6,9.17,100.66c2.57-2.09,14.79-3.54,14.79-3.54l10.61,4.02c8.84-39.4,43.9-68.99,86.03-68.99s77.19,29.43,86.03,68.82l10.61-3.86h0ZM25.57,78.79l2.57,4.34,4.98.96-3.38,3.7.64,4.98-4.66-2.09-4.82,2.25.64-4.98-3.38-3.7,4.98-.96,2.41-4.5h0ZM33.45,57.25l10.93,6.91-1.77,2.89-7.24-4.5,5.63,7.24-.8,1.29-9.01-1.77,7.24,4.5-1.77,2.89-10.93-6.91,2.41-4.02,7.56,1.45-4.66-6.11,2.41-3.86h0ZM48.56,59.34l-2.09,2.57-9.97-8.2,2.09-2.57,9.97,8.2h0ZM43.58,45.67l7.24,7.08,3.7-3.7,2.09,2.09-5.95,6.11-9.17-9.01,2.09-2.57h0ZM51.94,37.95l8.52,9.81-2.57,2.09-8.52-9.81,2.57-2.09h0ZM61.75,34.09l5.79,8.2-2.73,1.93-5.79-8.2-2.89,2.09-1.77-2.41,8.68-6.11,1.77,2.41-3.06,2.09h0ZM72.2,24.44l10.29,9.17-3.38,1.77-1.45-1.29-4.5,2.41.32,1.93-3.38,1.77-1.77-13.67,3.86-2.09h0ZM90.69,25.73l4.02,3.54-3.54,1.29-3.54-3.38-1.61.64,1.45,4.02-3.22,1.13-4.34-12.22,6.11-2.09c2.73-.96,4.82.32,5.63,2.57.8,2.09,0,3.7-.96,4.5h0ZM105.65,13.83l-3.22,8.52.96,5.15-3.22.64-.96-5.15-6.43-6.59,3.7-.8,3.7,4.18,1.77-5.31,3.7-.64h0ZM128,17.05l-3.38,3.86.64,4.98-4.66-2.09-4.66,2.09.64-4.98-3.38-3.7,4.98-.96,2.41-4.5,2.57,4.34,4.82.96h0ZM148.1,19.78l-3.06.8c-.16-1.13-1.13-2.09-2.25-2.41-2.09-.48-3.86.8-4.34,2.89-.48,2.09.64,4.02,2.73,4.5,1.29.32,2.41-.32,3.06-1.29l2.57,1.93c-1.13,1.45-3.22,2.89-6.27,2.25-3.86-.8-6.27-4.18-5.47-8.04.8-3.86,4.34-5.95,8.2-5.15,3.06.48,4.34,2.57,4.82,4.5h0ZM155.82,18.81l-4.18,12.22-3.22-1.13,4.18-12.22,3.22,1.13h0ZM171.9,25.89l-9.97,9.65-3.7-1.77,1.13-13.83,3.38,1.61-1.13,9.81,6.91-7.08,3.38,1.61h0ZM178.01,29.59l-6.91,10.93-2.89-1.77,6.91-10.93,2.89,1.77h0ZM184.61,34.09l-6.11,8.04,4.18,3.22-1.77,2.25-6.75-5.15,7.88-10.29,2.57,1.93h0ZM193.93,41.97l-8.68,9.49-2.41-2.25,8.68-9.49,2.41,2.25h0ZM202.78,51.3l-6.59,12.22-2.41-2.89.96-1.77-3.38-3.86-1.77.8-2.41-2.89,13.03-4.82,2.57,3.22h0ZM214.68,68.66l-10.93,6.91-1.77-2.73,3.54-8.68-6.43,4.02-1.77-2.89,10.93-6.91,1.77,2.89-3.22,8.2,6.11-3.7,1.77,2.89h0ZM219.66,87.96l.64,4.98-4.66-2.09-4.66,2.09.64-4.98-3.38-3.7,4.98-.96,2.57-4.34,2.57,4.34,4.98.96-3.7,3.7h0ZM194.09,53.71l2.09,2.57,2.57-4.5-4.66,1.93h0ZM88.6,22.35c-.32-.8-1.13-1.13-1.93-.8l-2.57.96.96,2.57,2.41-.8c.8-.32,1.45-1.13,1.13-1.93h0ZM72.68,33.45l2.89-1.45-3.7-3.54.8,4.98h0ZM182.84,176.08l-7.72-7.4-12.54,13.03-7.24-4.5,8.04,11.9,7.08-10.45,12.38-2.57h0ZM124.95,203.1v-1.93l.8-1.93.96.16.16.96.64-.32.16-.8.16-1.61,1.45-1.61.8.16.96-.32.8-.48,1.61-2.09v-.96l.48-1.93.48-2.25.16-2.09-.32-1.13.8-.48-.96-11.58-3.22,1.45-3.7,2.73-4.66,1.45-3.22-.32-4.18-1.61h0l-2.57.32-2.89.16-3.38.16.32,7.88.32,8.36.16,5.95,2.25.16,1.29.8,1.93,1.93,1.45.48,1.13.64,1.61-.32,1.29.48,1.45-.48,1.29-.16.64,1.13,1.29.8,1.61-.32.64-1.45h0ZM123.66,190.39l.48,3.86-3.54-1.61-3.54,1.61.48-3.86-2.57-2.89,3.86-.8,1.77-3.38,1.93,3.38,3.86.8-2.73,2.89h0ZM78.47,182.51l-12.54-13.03-7.72,7.4,12.22,2.73,7.08,10.45,8.04-11.9-7.08,4.34h0ZM63.52,165.15c5.15,4.66,9.97,9.65,14.47,14.79,25.89-16.08,58.69-16.4,84.91-.48,4.66-5.15,9.49-10.13,14.63-14.79-34.57-23.32-79.76-23-114.01.48h0ZM153.25,163.22c1.77-3.54,5.47-4.34,8.84-2.73,2.41,1.29,3.38,3.22,3.38,4.98h-3.06c0-.96-.64-2.09-1.61-2.57-1.77-.96-3.7-.16-4.66,1.61s-.32,3.86,1.45,4.66c1.29.64,2.41.32,3.22-.32l-2.89-1.45,1.29-2.57,6.11,3.06c-2.09,4.18-5.47,5.47-9.17,3.7-3.06-1.29-4.66-4.82-2.89-8.36h0ZM137.17,164.83l3.38-11.9,3.22.96,2.89,7.88,1.93-6.59,3.06.96-3.38,11.9-2.89-.8-3.06-8.36-1.93,6.91-3.22-.96h0ZM131.22,164.18l1.77-12.22,3.22.48-1.77,12.22-3.22-.48h0ZM81.69,170.62l4.5-2.25,1.29,2.41-7.24,3.7-5.63-11.1,2.89-1.45,4.18,8.68h0ZM94.88,168.36c-3.54,1.29-7.08-.32-8.36-4.02-1.13-3.54.64-6.91,4.18-8.2,3.54-1.29,7.08.32,8.36,4.02,1.13,3.7-.64,7.08-4.18,8.2h0ZM108.22,164.83l-5.15.8-1.93-12.22,5.15-.8c3.86-.64,6.91,1.29,7.56,4.98.64,3.86-1.77,6.59-5.63,7.24h0ZM123.34,151c2.73,0,4.34,1.61,5.31,3.06l-2.73,1.29c-.48-.8-1.45-1.61-2.57-1.61-2.09,0-3.54,1.45-3.54,3.54s1.29,3.54,3.38,3.7c1.45,0,2.41-.8,2.73-1.61h-3.22v-2.73l6.75.16c-.16,4.66-2.73,7.24-6.75,7.24-3.38,0-6.43-2.57-6.27-6.59.16-4.02,3.22-6.43,6.91-6.43h0ZM110.63,158.07c-.32-1.93-1.61-3.22-3.86-2.89l-1.93.32,1.13,6.75,1.93-.32c2.09-.32,3.06-2.09,2.73-3.86h0ZM96,161.29c-.64-1.93-2.41-3.06-4.34-2.25-1.93.64-2.73,2.57-2.09,4.5.64,1.93,2.41,2.89,4.34,2.25,1.93-.64,2.73-2.57,2.09-4.5h0ZM38.59,153.41H12.06c14.15,46.63,57.25,80.56,108.54,80.56s94.39-33.93,108.54-80.56h-26.53c-13.03,32.48-44.86,55.64-82.01,55.64s-68.99-23-82.01-55.64h0ZM215,174.31l-11.58-5.79,2.89-5.79c1.29-2.57,3.7-3.22,5.95-2.09,1.93.96,2.41,2.73,2.25,4.02l5.47-.16-1.77,3.38h-4.82l-.8,1.45,3.86,1.93-1.45,3.06h0ZM207.12,186.21l-10.77-7.24,5.31-7.88,2.41,1.61-3.54,5.15,1.61,1.13,3.38-4.98,2.41,1.61-3.38,4.98,1.77,1.29,3.54-5.15,2.41,1.61-5.15,7.88h0ZM200.04,194.41l-7.56-6.75-2.41,2.73-2.25-1.93,7.08-7.88,2.25,1.93-2.41,2.73,7.56,6.75-2.25,2.41h0ZM185.73,207.6l-8.36-9.81,2.57-2.25,8.68,2.09-4.66-5.47,2.57-2.25,8.36,9.81-2.41,2.09-9.01-2.09,4.82,5.63-2.57,2.25h0ZM173.51,215.32l-6.91-10.93,8.04-4.98,1.61,2.41-5.15,3.22,1.13,1.77,5.15-3.22,1.61,2.41-5.15,3.22,1.13,1.93,5.15-3.22,1.61,2.41-8.2,4.98h0ZM159.36,207.6c2.89-1.29,5.15-.32,6.59.8l-2.09,2.41c-.8-.8-2.09-1.13-3.38-.64-1.93.8-2.57,2.89-1.77,4.82s2.89,2.73,4.82,1.93c1.13-.48,1.77-1.77,1.77-2.89h3.22c-.16,1.77-.8,4.18-3.7,5.47-3.7,1.61-7.56.32-9.17-3.22-1.61-3.38.16-7.08,3.7-8.68h0ZM135.24,215.16l9.33-1.93.64,2.89-5.95,1.29.48,1.93,5.95-1.29.64,2.89-5.95,1.29.48,2.09,5.95-1.29.64,2.89-9.33,1.93-2.89-12.7h0ZM127.36,215.64c3.06-.16,4.98,1.45,5.95,3.06l-2.73,1.61c-.48-.96-1.61-1.77-2.89-1.61-2.09.16-3.54,1.93-3.38,4.02s1.77,3.7,3.86,3.54c1.29-.16,2.25-.96,2.57-2.09l2.89,1.13c-.64,1.77-2.25,3.7-5.31,3.86-4.02.32-7.24-2.25-7.4-6.11-.32-4.18,2.41-7.08,6.43-7.4h0ZM104.85,228.18l.96-12.86,3.54.16,4.66,7.56.64-7.08,3.38.32-.96,12.86-3.22-.32-4.82-7.88-.64,7.4-3.54-.16h0ZM90.86,224.97l2.89-12.7,9.33,2.09-.64,2.89-5.95-1.29-.48,1.93,5.79,1.29-.64,2.89-5.79-1.29-.48,2.09,5.95,1.29-.64,2.89-9.33-2.09h0ZM76.22,219.66l4.66-12.06,6.11,2.25c2.73.96,3.54,3.38,2.73,5.63-.8,2.09-2.57,2.73-3.86,2.73l.8,5.31-3.54-1.45-.48-4.82-1.61-.64-1.61,4.02-3.22-.96h0ZM63.52,213.07l6.27-11.42,8.36,4.5-1.45,2.57-5.47-2.89-.96,1.77,5.31,2.89-1.45,2.57-5.31-2.89-1.13,1.93,5.47,2.89-1.45,2.57-8.2-4.5h0ZM52.26,204.87l7.72-10.45,7.72,5.63-1.77,2.41-4.98-3.7-1.13,1.61,4.82,3.54-1.77,2.41-4.82-3.54-3.06,4.18-2.73-2.09h0ZM39.72,193.13l9.01-9.17,2.41,2.41-1.29,8.68,4.98-5.15,2.41,2.41-9.01,9.17-2.25-2.25,1.29-9.17-5.31,5.31-2.25-2.25h0ZM35.7,171.1l-2.57-1.93c.64-.8.96-2.25.32-3.38-.96-1.93-3.06-2.41-4.98-1.45s-2.57,3.06-1.61,4.98c.64,1.13,1.77,1.61,2.89,1.61l.16,3.22c-1.93,0-4.18-.64-5.63-3.38-1.77-3.54-.8-7.4,2.73-9.33,3.54-1.93,7.4-.48,9.17,3.06,1.29,2.73.48,5.15-.48,6.59h0ZM43.42,176.4c2.41,3.22,1.93,7.24-1.29,9.49s-7.08,1.61-9.49-1.61c-2.41-3.22-1.93-7.24,1.29-9.49,3.06-2.41,7.08-1.61,9.49,1.61h0ZM41.01,178.01c-1.29-1.77-3.38-1.93-5.15-.64-1.77,1.29-2.25,3.38-.96,4.98,1.29,1.77,3.38,1.93,5.15.64,1.77-1.13,2.25-3.22.96-4.98h0ZM82.98,211.62l-.96,2.57,2.41.96c.8.32,1.61.16,1.93-.8.32-.8-.16-1.61-.96-1.93l-2.41-.8h0ZM208.73,164.34l-1.13,2.41,2.41,1.29,1.13-2.41c.48-.8.32-1.61-.48-2.09-.8-.32-1.45,0-1.93.8h0Z"/>
</svg>