<?xml version="1.0" encoding="UTF-8"?>
<svg id="svg5" xmlns="http://www.w3.org/2000/svg" version="1.1" xmlns:svg="http://www.w3.org/2000/svg" xmlns:xlink="http://www.w3.org/1999/xlink" viewBox="0 0 232.524 133.286">
  <!-- Generator: Adobe Illustrator 30.6.0, SVG Export Plug-In . SVG Version: 2.1.4 Build 109)  -->
  <defs>
    <clipPath id="clippath">
      <rect width="232.524" height="133.286" fill="none"/>
    </clipPath>
  </defs>
  <g clip-path="url(#clippath)">
    <path d="M92.492,133.286L65.859,0H26.633L0,133.286h28.856l17.39-87.028,17.39,87.028h28.856ZM143.972,28.323h50.983V.027h-114.16v28.296h34.881v103.523h28.296V28.323ZM232.524,85.546V.027h-28.325v82.432c0,2.423-.091,5.056-.272,7.899-.182,2.845-.698,5.478-1.544,7.898-.848,2.423-2.178,4.448-3.994,6.083-1.816,1.634-4.358,2.451-7.626,2.451-3.149,0-5.964-1.09-8.443-3.269-2.482-2.178-3.904-4.84-4.267-7.989l-25.964,6.355c2.056,10.29,6.596,17.857,13.617,22.697,7.019,4.839,15.615,7.262,25.783,7.262,8.716,0,15.766-1.302,21.153-3.904,5.385-2.601,9.532-6.051,12.438-10.349,2.905-4.295,4.871-9.229,5.901-14.798,1.027-5.566,1.543-11.317,1.543-17.249" fill="#231f20"/>
  </g>
</svg>