<?xml version="1.0" encoding="UTF-8" standalone="no"?>
<svg
   version="1.1"
   viewBox="0 0 443.97 254.5"
   id="svg3"
   width="443.97"
   height="254.5"
   xmlns="http://www.w3.org/2000/svg"
   xmlns:svg="http://www.w3.org/2000/svg">
  <defs
     id="defs1">
    <style
       id="style1">
      .st0 {
        fill: none;
      }

      .st1 {
        fill: #ec008c;
      }

      .st2 {
        fill: #231f20;
      }

      .st3 {
        display: none;
      }

      .st4 {
        clip-path: url(#clippath);
      }
    </style>
    <clipPath
       id="clippath">
      <rect
         class="st0"
         x="546.01001"
         y="384.75"
         width="443.97"
         height="254.49001"
         id="rect1" />
    </clipPath>
  </defs>
  <g
     id="Layer_3"
     transform="translate(-546.01,-384.75)">
    <g
       class="st4"
       clip-path="url(#clippath)"
       id="g1">
      <path
         class="st2"
         d="m 989.99,384.8 h -54.08 v 157.39 c 0,4.63 -0.17,9.65 -0.52,15.08 -0.35,5.43 -1.33,10.46 -2.95,15.08 -1.62,4.63 -4.16,8.49 -7.63,11.61 -3.47,3.12 -8.32,4.68 -14.56,4.68 -6.24,0 -11.39,-2.08 -16.12,-6.24 -4.74,-4.16 -7.45,-9.24 -8.15,-15.25 l -49.58,12.13 c 3.93,19.65 12.59,34.09 26,43.34 13.4,9.24 29.81,13.87 49.23,13.87 16.64,0 30.1,-2.49 40.39,-7.45 10.28,-4.97 18.2,-11.55 23.75,-19.76 5.55,-8.2 9.3,-17.62 11.27,-28.26 1.96,-10.63 2.95,-21.61 2.95,-32.93 z"
         id="path1" />
    </g>
    <polygon
       class="st2"
       points="601.11,639.25 634.31,473.08 667.52,639.25 722.62,639.25 671.76,384.75 596.87,384.75 546.01,639.25 "
       id="polygon1" />
    <rect
       class="st2"
       x="766.88"
       y="384.81"
       width="54.029999"
       height="251.69"
       id="rect2" />
    <rect
       class="st2"
       x="700.28003"
       y="384.81"
       width="217.97"
       height="54.029999"
       id="rect3" />
  </g>
</svg>
